<svg width="34" height="34" viewBox="0 0 34 34" fill="none" xmlns="http://www.w3.org/2000/svg">
<path d="M25.4999 2.83331C24.2249 2.83331 22.6666 4.24998 22.6666 5.66665H11.3333C11.3333 4.24998 9.77492 2.83331 8.49992 2.83331H2.83325V15.5833C2.83325 17 4.24992 18.4166 5.66659 18.4166H8.78325C9.34992 21.25 11.1916 23.6583 15.5833 24.0833V27.03C11.3333 27.6816 11.3333 31.1666 11.3333 31.1666H22.6666C22.6666 31.1666 22.6666 27.6816 18.4166 27.03V24.0833C22.8083 23.6583 24.6499 21.25 25.2166 18.4166H28.3333C29.7499 18.4166 31.1666 17 31.1666 15.5833V2.83331H25.4999ZM8.49992 15.5833H5.66659V5.66665H8.49992V15.5833ZM22.6666 16.2916C22.6666 19.0258 21.8449 21.25 16.9999 21.25C12.1691 21.25 11.3333 19.0258 11.3333 16.2916V8.49998H22.6666V16.2916ZM28.3333 15.5833H25.4999V5.66665H28.3333V15.5833Z" fill="white"/>
</svg>
