<svg width="41" height="41" viewBox="0 0 41 41" fill="none" xmlns="http://www.w3.org/2000/svg">
<path fill-rule="evenodd" clip-rule="evenodd" d="M3.4165 20.5C3.4165 11.0649 11.0647 3.41669 20.4998 3.41669C29.935 3.41669 37.5832 11.0649 37.5832 20.5C37.5832 29.9351 29.935 37.5834 20.4998 37.5834C11.0647 37.5834 3.4165 29.9351 3.4165 20.5ZM20.4998 6.83335C16.8752 6.83335 13.399 8.27323 10.836 10.8362C8.27305 13.3992 6.83317 16.8754 6.83317 20.5C6.83317 24.1246 8.27305 27.6008 10.836 30.1638C13.399 32.7268 16.8752 34.1667 20.4998 34.1667C24.1245 34.1667 27.6006 32.7268 30.1636 30.1638C32.7266 27.6008 34.1665 24.1246 34.1665 20.5C34.1665 16.8754 32.7266 13.3992 30.1636 10.8362C27.6006 8.27323 24.1245 6.83335 20.4998 6.83335Z" fill="#7F1BAF"/>
<path fill-rule="evenodd" clip-rule="evenodd" d="M22.2083 11.9583C22.2083 11.5053 22.0283 11.0707 21.708 10.7504C21.3876 10.43 20.9531 10.25 20.5 10.25C20.0469 10.25 19.6124 10.43 19.292 10.7504C18.9717 11.0707 18.7917 11.5053 18.7917 11.9583V18.7917H11.9583C11.5053 18.7917 11.0707 18.9717 10.7504 19.292C10.43 19.6124 10.25 20.0469 10.25 20.5C10.25 20.9531 10.43 21.3876 10.7504 21.708C11.0707 22.0283 11.5053 22.2083 11.9583 22.2083H18.7917V29.0417C18.7917 29.4947 18.9717 29.9293 19.292 30.2496C19.6124 30.57 20.0469 30.75 20.5 30.75C20.9531 30.75 21.3876 30.57 21.708 30.2496C22.0283 29.9293 22.2083 29.4947 22.2083 29.0417V22.2083H29.0417C29.4947 22.2083 29.9293 22.0283 30.2496 21.708C30.57 21.3876 30.75 20.9531 30.75 20.5C30.75 20.0469 30.57 19.6124 30.2496 19.292C29.9293 18.9717 29.4947 18.7917 29.0417 18.7917H22.2083V11.9583Z" fill="#7F1BAF"/>
</svg>
