<svg width="27" height="27" viewBox="0 0 27 27" fill="none" xmlns="http://www.w3.org/2000/svg">
<path d="M24.2393 8.93189C23.9229 8.61553 23.4937 8.43781 23.0463 8.43781C22.5988 8.43781 22.1697 8.61553 21.8532 8.93189L13.5001 17.285L5.14695 8.93189C4.82868 8.62449 4.40241 8.4544 3.95995 8.45825C3.5175 8.46209 3.09425 8.63957 2.78138 8.95244C2.4685 9.26532 2.29103 9.68856 2.28718 10.131C2.28334 10.5735 2.45343 10.9997 2.76082 11.318L12.307 20.8642C12.6235 21.1806 13.0526 21.3583 13.5001 21.3583C13.9475 21.3583 14.3767 21.1806 14.6931 20.8642L24.2393 11.318C24.5557 11.0016 24.7334 10.5724 24.7334 10.125C24.7334 9.67749 24.5557 9.24834 24.2393 8.93189Z" fill="#333333"/>
</svg>
