<svg width="27" height="27" viewBox="0 0 27 27" fill="none" xmlns="http://www.w3.org/2000/svg">
<path d="M18.068 24.2393C18.3843 23.9228 18.5621 23.4937 18.5621 23.0462C18.5621 22.5987 18.3843 22.1696 18.068 21.8531L9.71487 13.5L18.068 5.14687C18.3754 4.82861 18.5455 4.40234 18.5416 3.95988C18.5378 3.51743 18.3603 3.09418 18.0474 2.7813C17.7346 2.46843 17.3113 2.29096 16.8689 2.28711C16.4264 2.28327 16.0001 2.45336 15.6819 2.76075L6.13568 12.3069C5.81932 12.6234 5.6416 13.0525 5.6416 13.5C5.6416 13.9475 5.81932 14.3766 6.13568 14.6931L15.6819 24.2393C15.9983 24.5556 16.4275 24.7333 16.8749 24.7333C17.3224 24.7333 17.7515 24.5556 18.068 24.2393Z" fill="#333333"/>
</svg>
