<svg width="41" height="41" viewBox="0 0 41 41" fill="none" xmlns="http://www.w3.org/2000/svg">
<path d="M32.4583 32.4583H8.54167V13.6666H32.4583M27.3333 1.70825V5.12492H13.6667V1.70825H10.25V5.12492H8.54167C6.64542 5.12492 5.125 6.64534 5.125 8.54159V32.4583C5.125 33.3644 5.48497 34.2335 6.12572 34.8742C6.76647 35.5149 7.63551 35.8749 8.54167 35.8749H32.4583C33.3645 35.8749 34.2335 35.5149 34.8743 34.8742C35.515 34.2335 35.875 33.3644 35.875 32.4583V8.54159C35.875 7.63543 35.515 6.76639 34.8743 6.12564C34.2335 5.48489 33.3645 5.12492 32.4583 5.12492H30.75V1.70825M29.0417 20.4999H20.5V29.0416H29.0417V20.4999Z" fill="#A4A4A5"/>
</svg>
