<svg width="33" height="33" viewBox="0 0 33 33" fill="none" xmlns="http://www.w3.org/2000/svg">
<path d="M4.125 13.75C4.125 8.56488 4.125 5.97162 5.7365 4.3615C7.348 2.75137 9.93988 2.75 15.125 2.75H17.875C23.0601 2.75 25.6534 2.75 27.2635 4.3615C28.8736 5.973 28.875 8.56488 28.875 13.75V19.25C28.875 24.4351 28.875 27.0284 27.2635 28.6385C25.652 30.2486 23.0601 30.25 17.875 30.25H15.125C9.93988 30.25 7.34662 30.25 5.7365 28.6385C4.12637 27.027 4.125 24.4351 4.125 19.25V13.75Z" stroke="white" stroke-width="3"/>
<path d="M11 13.75H22M11 19.25H17.875" stroke="white" stroke-width="3" stroke-linecap="round"/>
</svg>
