<svg width="237" height="126" viewBox="0 0 237 126" fill="none" xmlns="http://www.w3.org/2000/svg">
<path d="M121.667 16.0002C121.667 15.2929 121.386 14.6146 120.886 14.1145C120.386 13.6144 119.707 13.3335 119 13.3335C118.293 13.3335 117.615 13.6144 117.115 14.1145C116.614 14.6146 116.333 15.2929 116.333 16.0002V29.3335H103C102.293 29.3335 101.615 29.6144 101.115 30.1145C100.614 30.6146 100.333 31.2929 100.333 32.0002C100.333 32.7074 100.614 33.3857 101.115 33.8858C101.615 34.3859 102.293 34.6668 103 34.6668H116.333V48.0002C116.333 48.7074 116.614 49.3857 117.115 49.8858C117.615 50.3859 118.293 50.6668 119 50.6668C119.707 50.6668 120.386 50.3859 120.886 49.8858C121.386 49.3857 121.667 48.7074 121.667 48.0002V34.6668H135C135.707 34.6668 136.386 34.3859 136.886 33.8858C137.386 33.3857 137.667 32.7074 137.667 32.0002C137.667 31.2929 137.386 30.6146 136.886 30.1145C136.386 29.6144 135.707 29.3335 135 29.3335H121.667V16.0002Z" fill="#A4A4A5"/>
<path d="M9.52238 95.408C4.02638 95.408 1.55438 91.856 1.55438 87.008C1.55438 82.208 4.07438 78.608 9.57038 78.608C14.4904 78.608 16.7224 81.032 17.1064 84.992H15.0904C14.7544 81.872 12.9784 80.264 9.52238 80.264C5.53838 80.264 3.64238 82.544 3.64238 87.008C3.64238 91.472 5.49038 93.752 9.47438 93.752C13.0984 93.752 14.9224 91.88 15.1384 88.64H17.1784C16.9144 92.696 14.6344 95.408 9.52238 95.408ZM25.3172 95.384C21.2612 95.384 19.2692 92.6 19.2692 88.976C19.2692 85.4 21.2612 82.616 25.3172 82.616C29.3492 82.616 31.3412 85.424 31.3412 88.976C31.3412 92.576 29.3492 95.384 25.3172 95.384ZM21.2132 89C21.2132 92.36 22.6052 93.824 25.3172 93.824C28.0292 93.824 29.3972 92.36 29.3972 89C29.3972 85.616 28.0292 84.176 25.3172 84.176C22.6052 84.176 21.2132 85.616 21.2132 89ZM40.3894 82.616C43.3894 82.616 44.6614 84.248 44.6614 87.344V95H42.7414V87.56C42.7414 84.992 41.6134 84.224 39.8614 84.224C37.1974 84.224 35.7814 86.288 35.7814 90.416V95H33.8614V83H35.7814V86.168C36.5494 83.864 38.0374 82.616 40.3894 82.616ZM54.3816 82.616C57.3816 82.616 58.6536 84.248 58.6536 87.344V95H56.7336V87.56C56.7336 84.992 55.6056 84.224 53.8536 84.224C51.1896 84.224 49.7736 86.288 49.7736 90.416V95H47.8536V83H49.7736V86.168C50.5416 83.864 52.0296 82.616 54.3816 82.616ZM67.0119 93.92C69.3639 93.92 70.4439 92.816 70.8039 91.304H72.5559C72.3159 93.128 70.9239 95.384 66.9399 95.384C62.8119 95.384 60.9879 92.6 60.9879 88.976C60.9879 85.4 62.9559 82.616 66.9399 82.616C70.5399 82.616 72.5799 85.088 72.5799 88.592C72.5799 88.904 72.5799 89.144 72.5319 89.432H62.8839C63.0279 92.72 64.6119 93.92 67.0119 93.92ZM66.9639 84.08C64.6839 84.08 63.1959 85.16 62.9319 87.992H70.7079C70.6119 85.232 69.1959 84.08 66.9639 84.08ZM74.5348 89C74.5348 85.328 76.6468 82.616 80.5348 82.616C84.1348 82.616 85.9348 84.608 86.1268 87.392H84.3268C84.0388 85.424 82.8388 84.176 80.6068 84.176C78.0628 84.176 76.4788 85.544 76.4788 89C76.4788 92.48 78.0148 93.824 80.5348 93.824C82.9588 93.824 84.2068 92.456 84.4468 90.416H86.2708C86.1268 93.176 84.1828 95.384 80.5348 95.384C76.5988 95.384 74.5348 92.672 74.5348 89ZM95.3319 95H92.4999C90.1959 95 89.5959 94.112 89.5959 92.192V84.512H87.3159V83.432L89.7639 82.832L90.4839 80.336H91.5159V83H95.4759V84.512H91.5159V93.44H95.3319V95ZM110.386 85.64L114.034 79.04H116.266L110.266 89.408V95H108.274V89.408L102.274 79.04H104.554L108.178 85.64C108.538 86.336 108.898 87.008 109.282 87.68C109.642 87.008 110.026 86.336 110.386 85.64ZM121.739 95.384C117.683 95.384 115.691 92.6 115.691 88.976C115.691 85.4 117.683 82.616 121.739 82.616C125.771 82.616 127.763 85.424 127.763 88.976C127.763 92.576 125.771 95.384 121.739 95.384ZM117.635 89C117.635 92.36 119.027 93.824 121.739 93.824C124.451 93.824 125.819 92.36 125.819 89C125.819 85.616 124.451 84.176 121.739 84.176C119.027 84.176 117.635 85.616 117.635 89ZM130.231 90.656V83H132.151V90.44C132.151 93.104 133.327 93.8 135.175 93.8C137.671 93.8 139.087 91.568 139.087 87.584V83H141.007V95H139.087V91.904C138.367 94.16 136.903 95.384 134.623 95.384C131.599 95.384 130.231 93.8 130.231 90.656ZM150.587 82.832H151.019V84.728H150.515C146.963 84.608 146.195 87.2 146.195 90.584V95H144.275V83H146.195V86.24C146.915 84.128 148.307 82.832 150.587 82.832ZM170.06 85.952V79.04H172.028V95H170.06V87.56H160.772V95H158.78V79.04H160.772V85.952H170.06ZM180.731 93.92C183.083 93.92 184.163 92.816 184.523 91.304H186.275C186.035 93.128 184.643 95.384 180.659 95.384C176.531 95.384 174.707 92.6 174.707 88.976C174.707 85.4 176.675 82.616 180.659 82.616C184.259 82.616 186.299 85.088 186.299 88.592C186.299 88.904 186.299 89.144 186.251 89.432H176.603C176.747 92.72 178.331 93.92 180.731 93.92ZM180.683 84.08C178.403 84.08 176.915 85.16 176.651 87.992H184.427C184.331 85.232 182.915 84.08 180.683 84.08ZM198.427 85.28V78.2H200.347V95H198.427V92.696C197.611 94.4 196.099 95.384 193.891 95.384C190.123 95.384 188.395 92.672 188.395 89C188.395 85.304 190.123 82.616 193.891 82.616C196.099 82.616 197.611 83.576 198.427 85.28ZM194.275 93.824C196.819 93.824 198.427 92.384 198.427 89C198.427 85.616 196.819 84.176 194.275 84.176C191.539 84.176 190.339 85.76 190.339 89C190.339 92.216 191.539 93.824 194.275 93.824ZM208.832 93.92C211.184 93.92 212.264 92.816 212.624 91.304H214.376C214.136 93.128 212.744 95.384 208.76 95.384C204.632 95.384 202.808 92.6 202.808 88.976C202.808 85.4 204.776 82.616 208.76 82.616C212.36 82.616 214.4 85.088 214.4 88.592C214.4 88.904 214.4 89.144 214.352 89.432H204.704C204.848 92.72 206.432 93.92 208.832 93.92ZM208.784 84.08C206.504 84.08 205.016 85.16 204.752 87.992H212.528C212.432 85.232 211.016 84.08 208.784 84.08ZM223.173 82.832H223.605V84.728H223.101C219.549 84.608 218.781 87.2 218.781 90.584V95H216.861V83H218.781V86.24C219.501 84.128 220.893 82.832 223.173 82.832ZM228.969 95.312C226.665 95.312 225.009 94.112 225.009 91.832C225.009 89.888 226.065 88.664 228.657 88.232L231.705 87.728C232.977 87.512 233.505 87.176 233.505 86.264C233.505 85.04 232.881 84.104 230.553 84.104C228.201 84.104 227.313 85.208 227.193 86.768H225.297C225.369 84.224 227.169 82.592 230.481 82.592C233.769 82.592 235.257 84.104 235.257 86.264V92.024C235.257 92.888 235.281 93.824 235.401 95H233.649C233.553 93.968 233.481 93.08 233.481 92.192C233.025 93.632 231.753 95.312 228.969 95.312ZM229.353 93.8C232.185 93.8 233.505 91.592 233.505 89.312V88.28C232.905 88.712 232.257 88.904 231.345 89.096L229.353 89.504C227.721 89.84 226.953 90.464 226.953 91.76C226.953 93.128 227.937 93.8 229.353 93.8ZM38.2253 118.728L41.5853 104.04H43.5773L39.9293 120H36.5693L32.7773 105.552L28.9613 120H25.6013L21.9533 104.04H23.9693L27.3293 118.728L31.2173 104.04H34.3373L38.2253 118.728ZM48.5122 120.312C46.2082 120.312 44.5522 119.112 44.5522 116.832C44.5522 114.888 45.6082 113.664 48.2002 113.232L51.2482 112.728C52.5202 112.512 53.0482 112.176 53.0482 111.264C53.0482 110.04 52.4242 109.104 50.0962 109.104C47.7442 109.104 46.8562 110.208 46.7362 111.768H44.8402C44.9122 109.224 46.7122 107.592 50.0242 107.592C53.3122 107.592 54.8002 109.104 54.8002 111.264V117.024C54.8002 117.888 54.8242 118.824 54.9442 120H53.1922C53.0962 118.968 53.0242 118.08 53.0242 117.192C52.5682 118.632 51.2962 120.312 48.5122 120.312ZM48.8962 118.8C51.7282 118.8 53.0482 116.592 53.0482 114.312V113.28C52.4482 113.712 51.8002 113.904 50.8882 114.096L48.8962 114.504C47.2642 114.84 46.4962 115.464 46.4962 116.76C46.4962 118.128 47.4802 118.8 48.8962 118.8ZM59.8394 120H57.9194V103.2H59.8394V120ZM65.2066 120H63.2866V103.2H65.2066V120ZM73.8908 118.92C76.2428 118.92 77.3228 117.816 77.6828 116.304H79.4348C79.1948 118.128 77.8028 120.384 73.8188 120.384C69.6908 120.384 67.8668 117.6 67.8668 113.976C67.8668 110.4 69.8348 107.616 73.8188 107.616C77.4188 107.616 79.4588 110.088 79.4588 113.592C79.4588 113.904 79.4588 114.144 79.4108 114.432H69.7628C69.9068 117.72 71.4908 118.92 73.8908 118.92ZM73.8428 109.08C71.5628 109.08 70.0748 110.16 69.8108 112.992H77.5868C77.4908 110.232 76.0748 109.08 73.8428 109.08ZM88.5937 120H85.7617C83.4577 120 82.8577 119.112 82.8577 117.192V109.512H80.5777V108.432L83.0257 107.832L83.7457 105.336H84.7777V108H88.7377V109.512H84.7777V118.44H88.5937V120ZM103.359 120H100.527C98.2233 120 97.6233 119.112 97.6233 117.192V109.512H95.3433V108.432L97.7913 107.832L98.5113 105.336H99.5433V108H103.503V109.512H99.5433V118.44H103.359V120ZM110.852 120.384C106.796 120.384 104.804 117.6 104.804 113.976C104.804 110.4 106.796 107.616 110.852 107.616C114.884 107.616 116.876 110.424 116.876 113.976C116.876 117.576 114.884 120.384 110.852 120.384ZM106.748 114C106.748 117.36 108.14 118.824 110.852 118.824C113.564 118.824 114.932 117.36 114.932 114C114.932 110.616 113.564 109.176 110.852 109.176C108.14 109.176 106.748 110.616 106.748 114ZM132.362 104.04C135.794 104.04 137.186 106.128 137.186 108.696C137.186 111.24 135.794 113.376 132.266 113.376H127.058V120H125.042V104.04H132.362ZM127.058 111.768H131.858C134.234 111.768 135.098 110.52 135.098 108.696C135.098 106.8 134.234 105.648 131.93 105.648H127.058V111.768ZM146.076 107.832H146.508V109.728H146.004C142.452 109.608 141.684 112.2 141.684 115.584V120H139.764V108H141.684V111.24C142.404 109.128 143.796 107.832 146.076 107.832ZM153.673 120.384C149.617 120.384 147.625 117.6 147.625 113.976C147.625 110.4 149.617 107.616 153.673 107.616C157.705 107.616 159.697 110.424 159.697 113.976C159.697 117.576 157.705 120.384 153.673 120.384ZM149.569 114C149.569 117.36 150.961 118.824 153.673 118.824C156.385 118.824 157.753 117.36 157.753 114C157.753 110.616 156.385 109.176 153.673 109.176C150.961 109.176 149.569 110.616 149.569 114ZM161.711 114C161.711 110.328 163.823 107.616 167.711 107.616C171.311 107.616 173.111 109.608 173.303 112.392H171.503C171.215 110.424 170.015 109.176 167.783 109.176C165.239 109.176 163.655 110.544 163.655 114C163.655 117.48 165.191 118.824 167.711 118.824C170.135 118.824 171.383 117.456 171.623 115.416H173.447C173.303 118.176 171.359 120.384 167.711 120.384C163.775 120.384 161.711 117.672 161.711 114ZM181.352 118.92C183.704 118.92 184.784 117.816 185.144 116.304H186.896C186.656 118.128 185.264 120.384 181.28 120.384C177.152 120.384 175.328 117.6 175.328 113.976C175.328 110.4 177.296 107.616 181.28 107.616C184.88 107.616 186.92 110.088 186.92 113.592C186.92 113.904 186.92 114.144 186.872 114.432H177.224C177.368 117.72 178.952 118.92 181.352 118.92ZM181.304 109.08C179.024 109.08 177.536 110.16 177.272 112.992H185.048C184.952 110.232 183.536 109.08 181.304 109.08ZM194.899 118.92C197.251 118.92 198.331 117.816 198.691 116.304H200.443C200.203 118.128 198.811 120.384 194.827 120.384C190.699 120.384 188.875 117.6 188.875 113.976C188.875 110.4 190.843 107.616 194.827 107.616C198.427 107.616 200.467 110.088 200.467 113.592C200.467 113.904 200.467 114.144 200.419 114.432H190.771C190.915 117.72 192.499 118.92 194.899 118.92ZM194.851 109.08C192.571 109.08 191.083 110.16 190.819 112.992H198.595C198.499 110.232 197.083 109.08 194.851 109.08ZM212.595 110.28V103.2H214.515V120H212.595V117.696C211.779 119.4 210.267 120.384 208.059 120.384C204.291 120.384 202.563 117.672 202.563 114C202.563 110.304 204.291 107.616 208.059 107.616C210.267 107.616 211.779 108.576 212.595 110.28ZM208.443 118.824C210.987 118.824 212.595 117.384 212.595 114C212.595 110.616 210.987 109.176 208.443 109.176C205.707 109.176 204.507 110.76 204.507 114C204.507 117.216 205.707 118.824 208.443 118.824Z" fill="#A4A4A5"/>
</svg>
