<svg width="368" height="358" viewBox="0 0 368 358" fill="none" xmlns="http://www.w3.org/2000/svg">
<g filter="url(#filter0_d_75_955)">
<path d="M4 10C4 4.47715 8.47715 0 14 0H354C359.523 0 364 4.47715 364 10V340C364 345.523 359.523 350 354 350H14C8.47716 350 4 345.523 4 340V10Z" fill="#F5F5F5"/>
</g>
<path d="M121.973 27.7C125.033 27.7 126.253 29.68 126.253 32.1C126.253 34.68 125.033 36.66 121.973 36.66H118.093V41H114.533V27.7H121.973ZM118.093 33.94H120.793C122.073 33.94 122.573 33.16 122.573 32.12C122.573 31.1 122.093 30.4 120.833 30.4H118.093V33.94ZM130.541 41.26C128.541 41.26 127.221 40.12 127.221 38.36C127.221 36.76 127.881 35.7 130.641 35.24L132.901 34.84C133.821 34.68 134.061 34.44 134.061 33.92C134.061 33.32 133.701 32.96 132.561 32.96C131.361 32.96 130.781 33.44 130.761 34.32H127.421C127.521 32.2 129.361 30.68 132.521 30.68C135.681 30.68 137.241 31.98 137.241 34.26V38.24C137.241 39.3 137.301 40.18 137.421 41H134.461C134.361 40.42 134.301 39.74 134.301 38.92C133.801 40.38 132.561 41.26 130.541 41.26ZM131.841 39.02C133.141 39.02 134.061 38.1 134.061 36.3V35.92C133.581 36.28 133.121 36.4 132.501 36.56L131.921 36.7C130.961 36.94 130.601 37.28 130.601 37.96C130.601 38.66 131.141 39.02 131.841 39.02ZM145.223 30.84H146.063V34.18H144.843C143.183 34.18 142.483 34.98 142.483 37V41H139.043V31H142.383V33.06C142.783 31.62 143.603 30.84 145.223 30.84ZM154.084 41H152.264C149.204 41 148.244 39.64 148.244 37.06V33.58H146.484V31.98L148.524 31.08L149.944 28.58H151.684V31H154.404V33.58H151.684V38.28H154.084V41ZM159.516 29.78H155.956V27.7H159.516V29.78ZM159.456 41H156.016V31H159.456V41ZM160.949 36C160.949 33.3 162.469 30.68 166.609 30.68C170.229 30.68 171.989 32.72 172.069 35.22H168.689C168.589 34.04 167.989 33.36 166.649 33.36C165.209 33.36 164.389 34 164.389 36C164.389 38 165.169 38.64 166.589 38.64C168.009 38.64 168.609 37.86 168.729 36.76H172.109C172.029 39.14 170.369 41.32 166.649 41.32C162.509 41.32 160.949 38.7 160.949 36ZM176.977 29.78H173.417V27.7H176.977V29.78ZM176.917 41H173.477V31H176.917V41ZM185.905 30.68C189.185 30.68 190.485 33.14 190.485 36.02C190.485 38.8 189.185 41.32 185.905 41.32C184.205 41.32 183.065 40.68 182.385 39.6V45H178.945V31H182.385V32.36C183.065 31.3 184.205 30.68 185.905 30.68ZM184.745 38.64C186.445 38.64 187.045 37.86 187.045 36C187.045 34.14 186.445 33.36 184.745 33.36C182.985 33.36 182.385 34.22 182.385 36C182.385 37.78 182.985 38.64 184.745 38.64ZM195.033 41.26C193.033 41.26 191.713 40.12 191.713 38.36C191.713 36.76 192.373 35.7 195.133 35.24L197.393 34.84C198.313 34.68 198.553 34.44 198.553 33.92C198.553 33.32 198.193 32.96 197.053 32.96C195.853 32.96 195.273 33.44 195.253 34.32H191.913C192.013 32.2 193.853 30.68 197.013 30.68C200.173 30.68 201.733 31.98 201.733 34.26V38.24C201.733 39.3 201.793 40.18 201.913 41H198.953C198.853 40.42 198.793 39.74 198.793 38.92C198.293 40.38 197.053 41.26 195.033 41.26ZM196.333 39.02C197.633 39.02 198.553 38.1 198.553 36.3V35.92C198.073 36.28 197.613 36.4 196.993 36.56L196.413 36.7C195.453 36.94 195.093 37.28 195.093 37.96C195.093 38.66 195.633 39.02 196.333 39.02ZM210.576 30.68C213.196 30.68 214.336 32.3 214.336 34.92V41H210.896V35.5C210.896 34.18 210.356 33.46 209.156 33.46C207.776 33.46 206.976 34.34 206.976 36.3V41H203.536V31H206.976V32.84C207.636 31.54 208.796 30.68 210.576 30.68ZM222.873 41H221.053C217.993 41 217.033 39.64 217.033 37.06V33.58H215.273V31.98L217.313 31.08L218.733 28.58H220.473V31H223.193V33.58H220.473V38.28H222.873V41ZM224.147 37.78H227.267C227.347 38.6 228.027 39.26 229.307 39.26C230.427 39.26 230.867 38.9 230.867 38.32C230.867 37.82 230.687 37.4 229.527 37.26L227.407 37.02C225.467 36.8 224.427 35.76 224.427 34.02C224.427 31.64 226.467 30.68 229.147 30.68C231.907 30.68 233.827 31.62 234.027 33.96H230.907C230.807 33.18 230.267 32.72 229.167 32.72C228.007 32.72 227.567 33.14 227.567 33.7C227.567 34.12 227.807 34.5 228.747 34.6L230.807 34.8C233.167 35.04 234.147 36 234.147 37.92C234.147 39.82 232.967 41.32 229.247 41.32C225.587 41.32 224.227 39.62 224.147 37.78ZM253.901 33.46V35.62H252.021C251.901 36.48 251.681 37.26 251.361 37.96L253.601 39.84L252.001 41.6L249.981 39.9C248.941 40.82 247.541 41.34 245.761 41.34C242.801 41.34 240.821 39.98 240.821 37.58C240.821 35.94 241.621 34.82 243.101 33.94C242.281 32.98 241.921 32.06 241.921 31.02C241.921 28.66 243.761 27.36 246.521 27.36C249.141 27.36 250.721 28.56 250.721 30.52C250.721 31.92 250.001 32.96 248.321 33.8L247.141 34.4L249.481 36.38C249.581 36.08 249.641 35.78 249.681 35.46C249.841 34.1 250.601 33.46 251.901 33.46H253.901ZM246.481 29.54C245.441 29.54 244.781 30.06 244.781 31C244.781 31.6 244.961 32.14 245.461 32.8L246.421 32.34C247.341 31.9 247.961 31.52 247.961 30.78C247.961 30.06 247.521 29.54 246.481 29.54ZM245.981 39.1C246.861 39.1 247.601 38.82 248.161 38.38L244.861 35.6C244.041 36.12 243.681 36.76 243.681 37.42C243.681 38.44 244.481 39.1 245.981 39.1ZM71.2137 57.68H74.6337C74.7337 58.78 75.4537 59.78 77.3137 59.78C79.0137 59.78 79.6537 59.18 79.6537 58.26C79.6537 57.38 79.1337 56.94 78.1337 56.8L75.2337 56.48C72.8337 56.2 71.4537 54.84 71.4537 52.58C71.4537 50.08 73.3337 48.36 77.1737 48.36C81.2737 48.36 82.9137 50.32 83.0937 52.68H79.6137C79.4737 51.62 78.6737 50.92 77.1737 50.92C75.8137 50.92 75.0137 51.46 75.0137 52.34C75.0137 53.02 75.4137 53.52 76.4337 53.64L78.9737 53.9C81.8937 54.18 83.2137 55.56 83.2137 57.96C83.2137 60.58 81.5737 62.34 77.2537 62.34C72.8737 62.34 71.3537 60.06 71.2137 57.68ZM84.8716 58.08V52H88.3116V57.48C88.3116 58.82 88.8516 59.54 90.0716 59.54C91.4116 59.54 92.2116 58.62 92.2116 56.7V52H95.6516V62H92.2116V60.18C91.5716 61.48 90.4316 62.32 88.6716 62.32C86.0516 62.32 84.8716 60.7 84.8716 58.08ZM104.606 51.68C107.886 51.68 109.186 54.2 109.186 56.98C109.186 59.84 107.886 62.32 104.606 62.32C102.906 62.32 101.766 61.7 101.086 60.62V62H97.646V48H101.086V53.38C101.766 52.32 102.906 51.68 104.606 51.68ZM103.446 59.64C105.146 59.64 105.746 58.86 105.746 57C105.746 55.14 105.146 54.36 103.446 54.36C101.686 54.36 101.086 55.22 101.086 57C101.086 58.78 101.686 59.64 103.446 59.64ZM124.354 51.68C126.974 51.68 128.174 53.3 128.174 55.92V62H124.734V56.44C124.734 55.16 124.234 54.46 123.094 54.46C121.734 54.46 121.114 55.34 121.114 57.3V62H117.734V56.44C117.734 55.16 117.234 54.46 116.094 54.46C114.754 54.46 114.114 55.34 114.114 57.3V62H110.674V52H114.114V53.7C114.734 52.46 115.794 51.68 117.514 51.68C119.214 51.68 120.314 52.48 120.814 53.92C121.434 52.56 122.514 51.68 124.354 51.68ZM133.53 50.78H129.97V48.7H133.53V50.78ZM133.47 62H130.03V52H133.47V62ZM134.919 58.78H138.039C138.119 59.6 138.799 60.26 140.079 60.26C141.199 60.26 141.639 59.9 141.639 59.32C141.639 58.82 141.459 58.4 140.299 58.26L138.179 58.02C136.239 57.8 135.199 56.76 135.199 55.02C135.199 52.64 137.239 51.68 139.919 51.68C142.679 51.68 144.599 52.62 144.799 54.96H141.679C141.579 54.18 141.039 53.72 139.939 53.72C138.779 53.72 138.339 54.14 138.339 54.7C138.339 55.12 138.579 55.5 139.519 55.6L141.579 55.8C143.939 56.04 144.919 57 144.919 58.92C144.919 60.82 143.739 62.32 140.019 62.32C136.359 62.32 134.999 60.62 134.919 58.78ZM146.012 58.78H149.132C149.212 59.6 149.892 60.26 151.172 60.26C152.292 60.26 152.732 59.9 152.732 59.32C152.732 58.82 152.552 58.4 151.392 58.26L149.272 58.02C147.332 57.8 146.292 56.76 146.292 55.02C146.292 52.64 148.332 51.68 151.012 51.68C153.772 51.68 155.692 52.62 155.892 54.96H152.772C152.672 54.18 152.132 53.72 151.032 53.72C149.872 53.72 149.432 54.14 149.432 54.7C149.432 55.12 149.672 55.5 150.612 55.6L152.672 55.8C155.032 56.04 156.012 57 156.012 58.92C156.012 60.82 154.832 62.32 151.112 62.32C147.452 62.32 146.092 60.62 146.012 58.78ZM161.049 50.78H157.489V48.7H161.049V50.78ZM160.989 62H157.549V52H160.989V62ZM168.202 62.32C163.962 62.32 162.482 59.7 162.482 57C162.482 54.32 163.962 51.68 168.202 51.68C172.442 51.68 173.942 54.32 173.942 57C173.942 59.68 172.442 62.32 168.202 62.32ZM165.922 57C165.922 59 166.562 59.64 168.202 59.64C169.842 59.64 170.482 59 170.482 57C170.482 55 169.842 54.36 168.202 54.36C166.562 54.36 165.922 55 165.922 57ZM182.421 51.68C185.041 51.68 186.181 53.3 186.181 55.92V62H182.741V56.5C182.741 55.18 182.201 54.46 181.001 54.46C179.621 54.46 178.821 55.34 178.821 57.3V62H175.381V52H178.821V53.84C179.481 52.54 180.641 51.68 182.421 51.68ZM187.419 58.78H190.539C190.619 59.6 191.299 60.26 192.579 60.26C193.699 60.26 194.139 59.9 194.139 59.32C194.139 58.82 193.959 58.4 192.799 58.26L190.679 58.02C188.739 57.8 187.699 56.76 187.699 55.02C187.699 52.64 189.739 51.68 192.419 51.68C195.179 51.68 197.099 52.62 197.299 54.96H194.179C194.079 54.18 193.539 53.72 192.439 53.72C191.279 53.72 190.839 54.14 190.839 54.7C190.839 55.12 191.079 55.5 192.019 55.6L194.079 55.8C196.439 56.04 197.419 57 197.419 58.92C197.419 60.82 196.239 62.32 192.519 62.32C188.859 62.32 187.499 60.62 187.419 58.78ZM211.012 62.32C205.772 62.32 203.872 58.92 203.872 55.36C203.872 51.86 205.772 48.36 211.012 48.36C216.292 48.36 218.172 51.88 218.172 55.36C218.172 58.9 216.292 62.32 211.012 62.32ZM207.552 55.36C207.552 57.96 208.272 59.46 211.012 59.46C213.792 59.46 214.492 57.96 214.492 55.36C214.492 52.72 213.792 51.24 211.012 51.24C208.272 51.24 207.552 52.72 207.552 55.36ZM224.911 59.4L227.311 52H230.571L227.251 62H222.331L219.011 52H222.511L224.911 59.4ZM236.305 60.02C237.325 60.02 237.945 59.58 238.225 58.98H241.565C241.225 60.7 239.865 62.32 236.225 62.32C232.145 62.32 230.705 59.72 230.705 56.98C230.705 54.08 232.385 51.68 236.225 51.68C240.305 51.68 241.605 54.26 241.605 57.04C241.605 57.36 241.585 57.66 241.545 57.88H234.045C234.245 59.48 235.025 60.02 236.305 60.02ZM236.265 53.94C235.025 53.94 234.305 54.44 234.085 55.88H238.345C238.225 54.62 237.605 53.94 236.265 53.94ZM249.218 51.84H250.058V55.18H248.838C247.178 55.18 246.478 55.98 246.478 58V62H243.038V52H246.378V54.06C246.778 52.62 247.598 51.84 249.218 51.84ZM256.337 59.4L258.737 52H261.997L258.677 62H253.757L250.437 52H253.937L256.337 59.4ZM266.518 50.78H262.958V48.7H266.518V50.78ZM266.458 62H263.018V52H266.458V62ZM273.551 60.02C274.571 60.02 275.191 59.58 275.471 58.98H278.811C278.471 60.7 277.111 62.32 273.471 62.32C269.391 62.32 267.951 59.72 267.951 56.98C267.951 54.08 269.631 51.68 273.471 51.68C277.551 51.68 278.851 54.26 278.851 57.04C278.851 57.36 278.831 57.66 278.791 57.88H271.291C271.491 59.48 272.271 60.02 273.551 60.02ZM273.511 53.94C272.271 53.94 271.551 54.44 271.331 55.88H275.591C275.471 54.62 274.851 53.94 273.511 53.94ZM292.469 59.4L294.069 52H297.269L294.809 62H290.049L288.289 55.42L286.509 62H281.729L279.289 52H282.749L284.409 59.38L286.629 52H290.249L292.469 59.4Z" fill="#333333"/>
<path d="M35.495 103.025H43.895V104.03H40.325V113.015H39.095V104.03H35.495V103.025ZM46.8096 113.24C44.2746 113.24 43.0296 111.5 43.0296 109.235C43.0296 107 44.2746 105.26 46.8096 105.26C49.3296 105.26 50.5746 107.015 50.5746 109.235C50.5746 111.485 49.3296 113.24 46.8096 113.24ZM44.2446 109.25C44.2446 111.35 45.1146 112.265 46.8096 112.265C48.5046 112.265 49.3596 111.35 49.3596 109.25C49.3596 107.135 48.5046 106.235 46.8096 106.235C45.1146 106.235 44.2446 107.135 44.2446 109.25ZM56.3207 113H54.5507C53.1107 113 52.7357 112.445 52.7357 111.245V106.445H51.3107V105.77L52.8407 105.395L53.2907 103.835H53.9357V105.5H56.4107V106.445H53.9357V112.025H56.3207V113ZM60.0833 113.195C58.6433 113.195 57.6083 112.445 57.6083 111.02C57.6083 109.805 58.2683 109.04 59.8883 108.77L61.7933 108.455C62.5883 108.32 62.9183 108.11 62.9183 107.54C62.9183 106.775 62.5283 106.19 61.0733 106.19C59.6033 106.19 59.0483 106.88 58.9733 107.855H57.7883C57.8333 106.265 58.9583 105.245 61.0283 105.245C63.0833 105.245 64.0133 106.19 64.0133 107.54V111.14C64.0133 111.68 64.0283 112.265 64.1033 113H63.0083C62.9483 112.355 62.9033 111.8 62.9033 111.245C62.6183 112.145 61.8233 113.195 60.0833 113.195ZM60.3233 112.25C62.0933 112.25 62.9183 110.87 62.9183 109.445V108.8C62.5433 109.07 62.1383 109.19 61.5683 109.31L60.3233 109.565C59.3033 109.775 58.8233 110.165 58.8233 110.975C58.8233 111.83 59.4383 112.25 60.3233 112.25ZM67.1628 113H65.9628V102.5H67.1628V113ZM79.8864 112.16V103.025H81.1164V113H79.0314L74.5014 105.17C74.2464 104.69 74.0364 104.255 73.8714 103.865V113H72.6264V103.025H74.7264L79.2564 110.87C79.4514 111.215 79.6914 111.71 79.8864 112.16ZM83.0837 110.285V105.5H84.2837V110.15C84.2837 111.815 85.0187 112.25 86.1737 112.25C87.7337 112.25 88.6187 110.855 88.6187 108.365V105.5H89.8187V113H88.6187V111.065C88.1687 112.475 87.2537 113.24 85.8287 113.24C83.9387 113.24 83.0837 112.25 83.0837 110.285ZM101.057 105.26C102.767 105.26 103.592 106.25 103.592 108.17V113H102.392V108.305C102.392 106.79 101.777 106.265 100.682 106.265C99.0466 106.265 98.3116 107.555 98.3116 110.135V113H97.1416V108.305C97.1416 106.79 96.5116 106.265 95.4166 106.265C93.8116 106.265 93.0616 107.555 93.0616 110.135V113H91.8616V105.5H93.0616V107.36C93.5116 105.995 94.3816 105.26 95.7916 105.26C97.2616 105.26 98.0716 105.98 98.2516 107.42C98.6866 106.025 99.5716 105.26 101.057 105.26ZM109.607 105.26C111.962 105.26 113.042 106.94 113.042 109.25C113.042 111.545 111.962 113.24 109.607 113.24C108.227 113.24 107.282 112.625 106.772 111.56V113H105.572V102.5H106.772V106.925C107.282 105.86 108.227 105.26 109.607 105.26ZM109.367 112.265C111.077 112.265 111.827 111.26 111.827 109.25C111.827 107.225 111.077 106.235 109.367 106.235C107.777 106.235 106.772 107.135 106.772 109.25C106.772 111.365 107.777 112.265 109.367 112.265ZM118.103 112.325C119.573 112.325 120.248 111.635 120.473 110.69H121.568C121.418 111.83 120.548 113.24 118.058 113.24C115.478 113.24 114.338 111.5 114.338 109.235C114.338 107 115.568 105.26 118.058 105.26C120.308 105.26 121.583 106.805 121.583 108.995C121.583 109.19 121.583 109.34 121.553 109.52H115.523C115.613 111.575 116.603 112.325 118.103 112.325ZM118.073 106.175C116.648 106.175 115.718 106.85 115.553 108.62H120.413C120.353 106.895 119.468 106.175 118.073 106.175ZM127.066 105.395H127.336V106.58H127.021C124.801 106.505 124.321 108.125 124.321 110.24V113H123.121V105.5H124.321V107.525C124.771 106.205 125.641 105.395 127.066 105.395ZM135.667 113.24C133.132 113.24 131.887 111.5 131.887 109.235C131.887 107 133.132 105.26 135.667 105.26C138.187 105.26 139.432 107.015 139.432 109.235C139.432 111.485 138.187 113.24 135.667 113.24ZM133.102 109.25C133.102 111.35 133.972 112.265 135.667 112.265C137.362 112.265 138.217 111.35 138.217 109.25C138.217 107.135 137.362 106.235 135.667 106.235C133.972 106.235 133.102 107.135 133.102 109.25ZM142.676 113H141.476V106.445H140.216V105.77L141.476 105.455V104.015C141.476 103.01 141.941 102.5 143.381 102.5H145.286V103.415H142.586V105.5H144.866V106.445H142.676V113ZM43.415 126.36V127.41C43.415 128.145 43.52 128.625 43.61 129H42.395C42.29 128.67 42.215 128.175 42.215 127.455V126.54C42.215 125.115 41.45 124.53 40.07 124.53H37.265V129H36.02V119.025H40.67C42.725 119.025 43.73 120.045 43.73 121.65C43.73 122.985 42.905 123.915 41.795 124.17C42.74 124.44 43.415 124.89 43.415 126.36ZM37.265 123.6H40.52C41.915 123.6 42.425 122.895 42.425 121.755C42.425 120.6 41.84 120.03 40.535 120.03H37.265V123.6ZM48.9186 128.325C50.3886 128.325 51.0636 127.635 51.2886 126.69H52.3836C52.2336 127.83 51.3636 129.24 48.8736 129.24C46.2936 129.24 45.1536 127.5 45.1536 125.235C45.1536 123 46.3836 121.26 48.8736 121.26C51.1236 121.26 52.3986 122.805 52.3986 124.995C52.3986 125.19 52.3986 125.34 52.3686 125.52H46.3386C46.4286 127.575 47.4186 128.325 48.9186 128.325ZM48.8886 122.175C47.4636 122.175 46.5336 122.85 46.3686 124.62H51.2286C51.1686 122.895 50.2836 122.175 48.8886 122.175ZM60.0072 122.79V121.5H61.2072V129.015C61.2072 131.01 60.2322 132.165 57.5022 132.165C55.2672 132.165 54.0672 131.19 53.9322 129.48H55.1172C55.2072 130.47 55.8372 131.22 57.5022 131.22C59.2722 131.22 60.0072 130.605 60.0072 129V127.38C59.4972 128.355 58.5672 128.835 57.2172 128.835C54.8622 128.835 53.7522 127.365 53.7522 125.055C53.7522 122.76 54.8622 121.29 57.2172 121.29C58.5822 121.29 59.4972 121.83 60.0072 122.79ZM57.5022 127.89C59.0922 127.89 60.0072 127.095 60.0072 125.055C60.0072 123.03 59.0922 122.235 57.5022 122.235C55.7922 122.235 54.9822 123.03 54.9822 125.055C54.9822 127.08 55.7922 127.89 57.5022 127.89ZM64.6479 120.27H63.1029V119.025H64.6479V120.27ZM64.4679 129H63.2679V121.5H64.4679V129ZM66.0388 126.495H67.1488C67.2388 127.515 67.8088 128.325 69.5338 128.325C70.8538 128.325 71.3788 127.86 71.3788 127.02C71.3788 126.3 70.9588 125.91 70.0138 125.775L68.2738 125.52C66.9688 125.34 66.2338 124.65 66.2338 123.495C66.2338 122.1 67.3438 121.245 69.2338 121.245C71.1988 121.245 72.3238 122.235 72.4138 123.645H71.2288C71.1538 122.865 70.5838 122.16 69.2038 122.16C67.9288 122.16 67.4038 122.67 67.4038 123.405C67.4038 123.93 67.6737 124.38 68.6188 124.515L70.2088 124.74C71.9338 124.995 72.5638 125.73 72.5638 126.96C72.5638 128.49 71.4988 129.24 69.5038 129.24C67.0588 129.24 66.0688 128.07 66.0388 126.495ZM78.2641 129H76.4941C75.0541 129 74.6791 128.445 74.6791 127.245V122.445H73.2541V121.77L74.7841 121.395L75.2341 119.835H75.8791V121.5H78.3541V122.445H75.8791V128.025H78.2641V129ZM82.9323 128.325C84.4023 128.325 85.0773 127.635 85.3023 126.69H86.3973C86.2473 127.83 85.3773 129.24 82.8873 129.24C80.3073 129.24 79.1673 127.5 79.1673 125.235C79.1673 123 80.3973 121.26 82.8873 121.26C85.1373 121.26 86.4123 122.805 86.4123 124.995C86.4123 125.19 86.4123 125.34 86.3823 125.52H80.3523C80.4423 127.575 81.4323 128.325 82.9323 128.325ZM82.9023 122.175C81.4773 122.175 80.5473 122.85 80.3823 124.62H85.2423C85.1823 122.895 84.2973 122.175 82.9023 122.175ZM91.8955 121.395H92.1655V122.58H91.8505C89.6305 122.505 89.1505 124.125 89.1505 126.24V129H87.9505V121.5H89.1505V123.525C89.6005 122.205 90.4705 121.395 91.8955 121.395ZM96.6286 128.325C98.0986 128.325 98.7736 127.635 98.9986 126.69H100.094C99.9436 127.83 99.0736 129.24 96.5836 129.24C94.0036 129.24 92.8636 127.5 92.8636 125.235C92.8636 123 94.0936 121.26 96.5836 121.26C98.8336 121.26 100.109 122.805 100.109 124.995C100.109 125.19 100.109 125.34 100.079 125.52H94.0486C94.1386 127.575 95.1286 128.325 96.6286 128.325ZM96.5986 122.175C95.1736 122.175 94.2436 122.85 94.0786 124.62H98.9386C98.8786 122.895 97.9936 122.175 96.5986 122.175ZM107.689 122.925V118.5H108.889V129H107.689V127.56C107.179 128.625 106.234 129.24 104.854 129.24C102.499 129.24 101.419 127.545 101.419 125.25C101.419 122.94 102.499 121.26 104.854 121.26C106.234 121.26 107.179 121.86 107.689 122.925ZM105.094 128.265C106.684 128.265 107.689 127.365 107.689 125.25C107.689 123.135 106.684 122.235 105.094 122.235C103.384 122.235 102.634 123.225 102.634 125.25C102.634 127.26 103.384 128.265 105.094 128.265ZM118.92 119.025C121.065 119.025 121.935 120.33 121.935 121.935C121.935 123.525 121.065 124.86 118.86 124.86H115.605V129H114.345V119.025H118.92ZM115.605 123.855H118.605C120.09 123.855 120.63 123.075 120.63 121.935C120.63 120.75 120.09 120.03 118.65 120.03H115.605V123.855ZM125.415 129.195C123.975 129.195 122.94 128.445 122.94 127.02C122.94 125.805 123.6 125.04 125.22 124.77L127.125 124.455C127.92 124.32 128.25 124.11 128.25 123.54C128.25 122.775 127.86 122.19 126.405 122.19C124.935 122.19 124.38 122.88 124.305 123.855H123.12C123.165 122.265 124.29 121.245 126.36 121.245C128.415 121.245 129.345 122.19 129.345 123.54V127.14C129.345 127.68 129.36 128.265 129.435 129H128.34C128.28 128.355 128.235 127.8 128.235 127.245C127.95 128.145 127.155 129.195 125.415 129.195ZM125.655 128.25C127.425 128.25 128.25 126.87 128.25 125.445V124.8C127.875 125.07 127.47 125.19 126.9 125.31L125.655 125.565C124.635 125.775 124.155 126.165 124.155 126.975C124.155 127.83 124.77 128.25 125.655 128.25ZM135.269 121.395H135.539V122.58H135.224C133.004 122.505 132.524 124.125 132.524 126.24V129H131.324V121.5H132.524V123.525C132.974 122.205 133.844 121.395 135.269 121.395ZM140.959 129H139.189C137.749 129 137.374 128.445 137.374 127.245V122.445H135.949V121.77L137.479 121.395L137.929 119.835H138.574V121.5H141.049V122.445H138.574V128.025H140.959V129ZM143.954 120.27H142.409V119.025H143.954V120.27ZM143.774 129H142.574V121.5H143.774V129ZM145.495 125.25C145.495 122.955 146.815 121.26 149.245 121.26C151.495 121.26 152.62 122.505 152.74 124.245H151.615C151.435 123.015 150.685 122.235 149.29 122.235C147.7 122.235 146.71 123.09 146.71 125.25C146.71 127.425 147.67 128.265 149.245 128.265C150.76 128.265 151.54 127.41 151.69 126.135H152.83C152.74 127.86 151.525 129.24 149.245 129.24C146.785 129.24 145.495 127.545 145.495 125.25ZM155.703 120.27H154.158V119.025H155.703V120.27ZM155.523 129H154.323V121.5H155.523V129ZM161.653 121.26C164.008 121.26 165.088 122.955 165.088 125.25C165.088 127.56 164.008 129.24 161.653 129.24C160.273 129.24 159.328 128.64 158.818 127.575V132H157.618V121.5H158.818V122.94C159.328 121.875 160.273 121.26 161.653 121.26ZM161.413 128.265C163.123 128.265 163.873 127.275 163.873 125.25C163.873 123.24 163.123 122.235 161.413 122.235C159.823 122.235 158.818 123.135 158.818 125.25C158.818 127.365 159.823 128.265 161.413 128.265ZM168.95 129.195C167.51 129.195 166.475 128.445 166.475 127.02C166.475 125.805 167.135 125.04 168.755 124.77L170.66 124.455C171.455 124.32 171.785 124.11 171.785 123.54C171.785 122.775 171.395 122.19 169.94 122.19C168.47 122.19 167.915 122.88 167.84 123.855H166.655C166.7 122.265 167.825 121.245 169.895 121.245C171.95 121.245 172.88 122.19 172.88 123.54V127.14C172.88 127.68 172.895 128.265 172.97 129H171.875C171.815 128.355 171.77 127.8 171.77 127.245C171.485 128.145 170.69 129.195 168.95 129.195ZM169.19 128.25C170.96 128.25 171.785 126.87 171.785 125.445V124.8C171.41 125.07 171.005 125.19 170.435 125.31L169.19 125.565C168.17 125.775 167.69 126.165 167.69 126.975C167.69 127.83 168.305 128.25 169.19 128.25ZM178.94 121.26C180.815 121.26 181.61 122.28 181.61 124.215V129H180.41V124.35C180.41 122.745 179.705 122.265 178.61 122.265C176.945 122.265 176.06 123.555 176.06 126.135V129H174.86V121.5H176.06V123.48C176.54 122.04 177.47 121.26 178.94 121.26ZM187.717 129H185.947C184.507 129 184.132 128.445 184.132 127.245V122.445H182.707V121.77L184.237 121.395L184.687 119.835H185.332V121.5H187.807V122.445H185.332V128.025H187.717V129ZM188.749 126.495H189.859C189.949 127.515 190.519 128.325 192.244 128.325C193.564 128.325 194.089 127.86 194.089 127.02C194.089 126.3 193.669 125.91 192.724 125.775L190.984 125.52C189.679 125.34 188.944 124.65 188.944 123.495C188.944 122.1 190.054 121.245 191.944 121.245C193.909 121.245 195.034 122.235 195.124 123.645H193.939C193.864 122.865 193.294 122.16 191.914 122.16C190.639 122.16 190.114 122.67 190.114 123.405C190.114 123.93 190.384 124.38 191.329 124.515L192.919 124.74C194.644 124.995 195.274 125.73 195.274 126.96C195.274 128.49 194.209 129.24 192.214 129.24C189.769 129.24 188.779 128.07 188.749 126.495ZM197.788 122.82H196.228V121.5H197.788V122.82ZM197.788 129H196.228V127.68H197.788V129Z" fill="#333333"/>
<path d="M39.86 191.17C37.55 191.17 36.55 189.68 36.55 187.67C36.55 185.69 37.55 184.17 39.86 184.17C42.17 184.17 43.18 185.7 43.18 187.67C43.18 189.67 42.17 191.17 39.86 191.17ZM37.42 187.67C37.42 189.54 38.16 190.48 39.86 190.48C41.56 190.48 42.31 189.54 42.31 187.67C42.31 185.8 41.56 184.86 39.86 184.86C38.16 184.86 37.42 185.8 37.42 187.67ZM46.9977 185.84C48.5677 185.84 49.2877 186.97 49.2877 188.5C49.2877 190.04 48.5677 191.16 46.9977 191.16C46.0777 191.16 45.4477 190.76 45.1077 190.05V193H44.3077V186H45.1077V186.96C45.4477 186.25 46.0777 185.84 46.9977 185.84ZM46.8377 190.51C47.9777 190.51 48.4777 189.85 48.4777 188.5C48.4777 187.16 47.9777 186.49 46.8377 186.49C45.7777 186.49 45.1077 187.09 45.1077 188.5C45.1077 189.91 45.7777 190.51 46.8377 190.51ZM52.6619 190.55C53.6419 190.55 54.0919 190.09 54.2419 189.46H54.9719C54.8719 190.22 54.2919 191.16 52.6319 191.16C50.9119 191.16 50.1519 190 50.1519 188.49C50.1519 187 50.9719 185.84 52.6319 185.84C54.1319 185.84 54.9819 186.87 54.9819 188.33C54.9819 188.46 54.9819 188.56 54.9619 188.68H50.9419C51.0019 190.05 51.6619 190.55 52.6619 190.55ZM52.6419 186.45C51.6919 186.45 51.0719 186.9 50.9619 188.08H54.2019C54.1619 186.93 53.5719 186.45 52.6419 186.45ZM58.7273 185.84C59.9773 185.84 60.5073 186.52 60.5073 187.81V191H59.7073V187.9C59.7073 186.83 59.2373 186.51 58.5073 186.51C57.3973 186.51 56.8073 187.37 56.8073 189.09V191H56.0073V186H56.8073V187.32C57.1273 186.36 57.7473 185.84 58.7273 185.84ZM65.3328 191H64.5328V186.63H63.6928V186.18L64.5328 185.97V185.01C64.5328 184.34 64.8428 184 65.8028 184H67.0728V184.61H65.2728V186H66.7928V186.63H65.3328V191ZM69.6738 191.16C67.9838 191.16 67.1538 190 67.1538 188.49C67.1538 187 67.9838 185.84 69.6738 185.84C71.3538 185.84 72.1838 187.01 72.1838 188.49C72.1838 189.99 71.3538 191.16 69.6738 191.16ZM67.9638 188.5C67.9638 189.9 68.5438 190.51 69.6738 190.51C70.8038 190.51 71.3738 189.9 71.3738 188.5C71.3738 187.09 70.8038 186.49 69.6738 186.49C68.5438 186.49 67.9638 187.09 67.9638 188.5ZM75.8639 185.93H76.0439V186.72H75.8339C74.3539 186.67 74.0339 187.75 74.0339 189.16V191H73.2339V186H74.0339V187.35C74.3339 186.47 74.9139 185.93 75.8639 185.93ZM39.36 196.93H39.54V197.72H39.33C37.85 197.67 37.53 198.75 37.53 200.16V202H36.73V197H37.53V198.35C37.83 197.47 38.41 196.93 39.36 196.93ZM42.5154 201.55C43.4954 201.55 43.9454 201.09 44.0954 200.46H44.8254C44.7254 201.22 44.1454 202.16 42.4854 202.16C40.7654 202.16 40.0054 201 40.0054 199.49C40.0054 198 40.8254 196.84 42.4854 196.84C43.9854 196.84 44.8354 197.87 44.8354 199.33C44.8354 199.46 44.8354 199.56 44.8154 199.68H40.7954C40.8554 201.05 41.5154 201.55 42.5154 201.55ZM42.4954 197.45C41.5454 197.45 40.9254 197.9 40.8154 199.08H44.0554C44.0154 197.93 43.4254 197.45 42.4954 197.45ZM49.9078 197.86V197H50.7078V202.01C50.7078 203.34 50.0578 204.11 48.2378 204.11C46.7478 204.11 45.9478 203.46 45.8578 202.32H46.6478C46.7078 202.98 47.1278 203.48 48.2378 203.48C49.4178 203.48 49.9078 203.07 49.9078 202V200.92C49.5678 201.57 48.9478 201.89 48.0478 201.89C46.4778 201.89 45.7378 200.91 45.7378 199.37C45.7378 197.84 46.4778 196.86 48.0478 196.86C48.9578 196.86 49.5678 197.22 49.9078 197.86ZM48.2378 201.26C49.2978 201.26 49.9078 200.73 49.9078 199.37C49.9078 198.02 49.2978 197.49 48.2378 197.49C47.0978 197.49 46.5578 198.02 46.5578 199.37C46.5578 200.72 47.0978 201.26 48.2378 201.26ZM53.0016 196.18H51.9716V195.35H53.0016V196.18ZM52.8816 202H52.0816V197H52.8816V202ZM53.9288 200.33H54.6688C54.7288 201.01 55.1088 201.55 56.2588 201.55C57.1388 201.55 57.4888 201.24 57.4888 200.68C57.4888 200.2 57.2088 199.94 56.5788 199.85L55.4188 199.68C54.5488 199.56 54.0588 199.1 54.0588 198.33C54.0588 197.4 54.7988 196.83 56.0588 196.83C57.3688 196.83 58.1188 197.49 58.1788 198.43H57.3888C57.3388 197.91 56.9588 197.44 56.0388 197.44C55.1888 197.44 54.8388 197.78 54.8388 198.27C54.8388 198.62 55.0188 198.92 55.6488 199.01L56.7088 199.16C57.8588 199.33 58.2788 199.82 58.2788 200.64C58.2788 201.66 57.5688 202.16 56.2388 202.16C54.6088 202.16 53.9488 201.38 53.9288 200.33ZM62.0791 202H60.8991C59.9391 202 59.6891 201.63 59.6891 200.83V197.63H58.7391V197.18L59.7591 196.93L60.0591 195.89H60.4891V197H62.1391V197.63H60.4891V201.35H62.0791V202ZM65.7858 196.93H65.9658V197.72H65.7558C64.2758 197.67 63.9558 198.75 63.9558 200.16V202H63.1558V197H63.9558V198.35C64.2558 197.47 64.8358 196.93 65.7858 196.93ZM68.2007 202.13C67.2407 202.13 66.5507 201.63 66.5507 200.68C66.5507 199.87 66.9907 199.36 68.0707 199.18L69.3407 198.97C69.8707 198.88 70.0907 198.74 70.0907 198.36C70.0907 197.85 69.8307 197.46 68.8607 197.46C67.8807 197.46 67.5107 197.92 67.4607 198.57H66.6707C66.7007 197.51 67.4507 196.83 68.8307 196.83C70.2007 196.83 70.8207 197.46 70.8207 198.36V200.76C70.8207 201.12 70.8307 201.51 70.8807 202H70.1507C70.1107 201.57 70.0807 201.2 70.0807 200.83C69.8907 201.43 69.3607 202.13 68.2007 202.13ZM68.3607 201.5C69.5407 201.5 70.0907 200.58 70.0907 199.63V199.2C69.8407 199.38 69.5707 199.46 69.1907 199.54L68.3607 199.71C67.6807 199.85 67.3607 200.11 67.3607 200.65C67.3607 201.22 67.7707 201.5 68.3607 201.5ZM74.872 202H73.692C72.732 202 72.482 201.63 72.482 200.83V197.63H71.532V197.18L72.552 196.93L72.852 195.89H73.282V197H74.932V197.63H73.282V201.35H74.872V202ZM76.8688 196.18H75.8388V195.35H76.8688V196.18ZM76.7488 202H75.9488V197H76.7488V202ZM80.416 202.16C78.726 202.16 77.896 201 77.896 199.49C77.896 198 78.726 196.84 80.416 196.84C82.096 196.84 82.926 198.01 82.926 199.49C82.926 200.99 82.096 202.16 80.416 202.16ZM78.706 199.5C78.706 200.9 79.286 201.51 80.416 201.51C81.546 201.51 82.116 200.9 82.116 199.5C82.116 198.09 81.546 197.49 80.416 197.49C79.286 197.49 78.706 198.09 78.706 199.5ZM86.6961 196.84C87.9461 196.84 88.4761 197.52 88.4761 198.81V202H87.6761V198.9C87.6761 197.83 87.2061 197.51 86.4761 197.51C85.3661 197.51 84.7761 198.37 84.7761 200.09V202H83.9761V197H84.7761V198.32C85.0961 197.36 85.7161 196.84 86.6961 196.84Z" fill="#333333"/>
<path d="M37.3388 266.996H38.2268C38.2988 267.812 38.7548 268.46 40.1348 268.46C41.1908 268.46 41.6108 268.088 41.6108 267.416C41.6108 266.84 41.2748 266.528 40.5188 266.42L39.1268 266.216C38.0828 266.072 37.4948 265.52 37.4948 264.596C37.4948 263.48 38.3828 262.796 39.8948 262.796C41.4668 262.796 42.3668 263.588 42.4388 264.716H41.4908C41.4308 264.092 40.9748 263.528 39.8708 263.528C38.8508 263.528 38.4308 263.936 38.4308 264.524C38.4308 264.944 38.6468 265.304 39.4028 265.412L40.6748 265.592C42.0548 265.796 42.5588 266.384 42.5588 267.368C42.5588 268.592 41.7068 269.192 40.1108 269.192C38.1548 269.192 37.3628 268.256 37.3388 266.996ZM43.756 266.828V263H44.716V266.72C44.716 268.052 45.304 268.4 46.228 268.4C47.476 268.4 48.184 267.284 48.184 265.292V263H49.144V269H48.184V267.452C47.824 268.58 47.092 269.192 45.952 269.192C44.44 269.192 43.756 268.4 43.756 266.828ZM54.0409 262.808C55.9249 262.808 56.7889 264.152 56.7889 266C56.7889 267.836 55.9249 269.192 54.0409 269.192C52.9369 269.192 52.1809 268.7 51.7729 267.848V269H50.8129V260.6H51.7729V264.14C52.1809 263.288 52.9369 262.808 54.0409 262.808ZM53.8489 268.412C55.2169 268.412 55.8169 267.608 55.8169 266C55.8169 264.38 55.2169 263.588 53.8489 263.588C52.5769 263.588 51.7729 264.308 51.7729 266C51.7729 267.692 52.5769 268.412 53.8489 268.412ZM65.4937 262.808C66.8617 262.808 67.5217 263.6 67.5217 265.136V269H66.5617V265.244C66.5617 264.032 66.0697 263.612 65.1937 263.612C63.8857 263.612 63.2977 264.644 63.2977 266.708V269H62.3617V265.244C62.3617 264.032 61.8577 263.612 60.9817 263.612C59.6977 263.612 59.0977 264.644 59.0977 266.708V269H58.1377V263H59.0977V264.488C59.4577 263.396 60.1537 262.808 61.2817 262.808C62.4577 262.808 63.1057 263.384 63.2497 264.536C63.5977 263.42 64.3057 262.808 65.4937 262.808ZM70.2222 262.016H68.9862V261.02H70.2222V262.016ZM70.0782 269H69.1182V263H70.0782V269ZM75.0566 269H73.6406C72.4886 269 72.1886 268.556 72.1886 267.596V263.756H71.0486V263.216L72.2726 262.916L72.6326 261.668H73.1486V263H75.1286V263.756H73.1486V268.22H75.0566V269ZM79.6035 269H78.1875C77.0355 269 76.7355 268.556 76.7355 267.596V263.756H75.5955V263.216L76.8195 262.916L77.1795 261.668H77.6955V263H79.6755V263.756H77.6955V268.22H79.6035V269ZM83.338 268.46C84.514 268.46 85.054 267.908 85.234 267.152H86.11C85.99 268.064 85.294 269.192 83.302 269.192C81.238 269.192 80.326 267.8 80.326 265.988C80.326 264.2 81.31 262.808 83.302 262.808C85.102 262.808 86.122 264.044 86.122 265.796C86.122 265.952 86.122 266.072 86.098 266.216H81.274C81.346 267.86 82.138 268.46 83.338 268.46ZM83.314 263.54C82.174 263.54 81.43 264.08 81.298 265.496H85.186C85.138 264.116 84.43 263.54 83.314 263.54ZM92.186 264.14V260.6H93.146V269H92.186V267.848C91.778 268.7 91.022 269.192 89.918 269.192C88.034 269.192 87.17 267.836 87.17 266C87.17 264.152 88.034 262.808 89.918 262.808C91.022 262.808 91.778 263.288 92.186 264.14ZM90.11 268.412C91.382 268.412 92.186 267.692 92.186 266C92.186 264.308 91.382 263.588 90.11 263.588C88.742 263.588 88.142 264.38 88.142 266C88.142 267.608 88.742 268.412 90.11 268.412ZM52.7402 275.808C54.6242 275.808 55.4882 277.164 55.4882 279C55.4882 280.848 54.6242 282.192 52.7402 282.192C51.6362 282.192 50.8802 281.712 50.4722 280.86V284.4H49.5122V276H50.4722V277.152C50.8802 276.3 51.6362 275.808 52.7402 275.808ZM52.5482 281.412C53.9162 281.412 54.5162 280.62 54.5162 279C54.5162 277.392 53.9162 276.588 52.5482 276.588C51.2762 276.588 50.4722 277.308 50.4722 279C50.4722 280.692 51.2762 281.412 52.5482 281.412ZM59.9929 275.916H60.2089V276.864H59.9569C58.1809 276.804 57.7969 278.1 57.7969 279.792V282H56.8369V276H57.7969V277.62C58.1569 276.564 58.8529 275.916 59.9929 275.916ZM63.7914 282.192C61.7634 282.192 60.7674 280.8 60.7674 278.988C60.7674 277.2 61.7634 275.808 63.7914 275.808C65.8074 275.808 66.8034 277.212 66.8034 278.988C66.8034 280.788 65.8074 282.192 63.7914 282.192ZM61.7394 279C61.7394 280.68 62.4354 281.412 63.7914 281.412C65.1474 281.412 65.8314 280.68 65.8314 279C65.8314 277.308 65.1474 276.588 63.7914 276.588C62.4354 276.588 61.7394 277.308 61.7394 279ZM67.8952 274.02H69.1312V275.016H67.8952V274.02ZM67.4632 284.4H66.4792V283.62H68.0392V276H68.9992V282.996C68.9992 283.956 68.6152 284.4 67.4632 284.4ZM73.2833 281.46C74.4593 281.46 74.9993 280.908 75.1793 280.152H76.0553C75.9353 281.064 75.2393 282.192 73.2473 282.192C71.1833 282.192 70.2713 280.8 70.2713 278.988C70.2713 277.2 71.2553 275.808 73.2473 275.808C75.0473 275.808 76.0673 277.044 76.0673 278.796C76.0673 278.952 76.0673 279.072 76.0433 279.216H71.2193C71.2913 280.86 72.0833 281.46 73.2833 281.46ZM73.2593 276.54C72.1193 276.54 71.3753 277.08 71.2433 278.496H75.1313C75.0833 277.116 74.3753 276.54 73.2593 276.54ZM77.0448 279C77.0448 277.164 78.1008 275.808 80.0448 275.808C81.8448 275.808 82.7448 276.804 82.8408 278.196H81.9408C81.7968 277.212 81.1968 276.588 80.0808 276.588C78.8088 276.588 78.0168 277.272 78.0168 279C78.0168 280.74 78.7848 281.412 80.0448 281.412C81.2568 281.412 81.8808 280.728 82.0008 279.708H82.9128C82.8408 281.088 81.8688 282.192 80.0448 282.192C78.0768 282.192 77.0448 280.836 77.0448 279ZM87.4433 282H86.0273C84.8753 282 84.5753 281.556 84.5753 280.596V276.756H83.4353V276.216L84.6593 275.916L85.0193 274.668H85.5353V276H87.5153V276.756H85.5353V281.22H87.4433V282ZM88.2685 279.996H89.1565C89.2285 280.812 89.6845 281.46 91.0645 281.46C92.1205 281.46 92.5405 281.088 92.5405 280.416C92.5405 279.84 92.2045 279.528 91.4485 279.42L90.0565 279.216C89.0125 279.072 88.4245 278.52 88.4245 277.596C88.4245 276.48 89.3125 275.796 90.8245 275.796C92.3965 275.796 93.2965 276.588 93.3685 277.716H92.4205C92.3605 277.092 91.9045 276.528 90.8005 276.528C89.7805 276.528 89.3605 276.936 89.3605 277.524C89.3605 277.944 89.5765 278.304 90.3325 278.412L91.6045 278.592C92.9845 278.796 93.4885 279.384 93.4885 280.368C93.4885 281.592 92.6365 282.192 91.0405 282.192C89.0845 282.192 88.2925 281.256 88.2685 279.996Z" fill="#333333"/>
<path d="M161.31 185.35V186.02H159.9V191.33H161.31V192H157.67V191.33H159.08V186.02H157.67V185.35H161.31ZM165.255 186.84C166.505 186.84 167.035 187.52 167.035 188.81V192H166.235V188.9C166.235 187.83 165.765 187.51 165.035 187.51C163.925 187.51 163.335 188.37 163.335 190.09V192H162.535V187H163.335V188.32C163.655 187.36 164.275 186.84 165.255 186.84ZM173.64 185.35C175.07 185.35 175.65 186.22 175.65 187.29C175.65 188.35 175.07 189.24 173.6 189.24H171.43V192H170.59V185.35H173.64ZM171.43 188.57H173.43C174.42 188.57 174.78 188.05 174.78 187.29C174.78 186.5 174.42 186.02 173.46 186.02H171.43V188.57ZM179.354 186.93H179.534V187.72H179.324C177.844 187.67 177.524 188.75 177.524 190.16V192H176.724V187H177.524V188.35C177.824 187.47 178.404 186.93 179.354 186.93ZM182.52 192.16C180.83 192.16 180 191 180 189.49C180 188 180.83 186.84 182.52 186.84C184.2 186.84 185.03 188.01 185.03 189.49C185.03 190.99 184.2 192.16 182.52 192.16ZM180.81 189.5C180.81 190.9 181.39 191.51 182.52 191.51C183.65 191.51 184.22 190.9 184.22 189.5C184.22 188.09 183.65 187.49 182.52 187.49C181.39 187.49 180.81 188.09 180.81 189.5ZM190.127 187.86V187H190.927V192.01C190.927 193.34 190.277 194.11 188.457 194.11C186.967 194.11 186.167 193.46 186.077 192.32H186.867C186.927 192.98 187.347 193.48 188.457 193.48C189.637 193.48 190.127 193.07 190.127 192V190.92C189.787 191.57 189.167 191.89 188.267 191.89C186.697 191.89 185.957 190.91 185.957 189.37C185.957 187.84 186.697 186.86 188.267 186.86C189.177 186.86 189.787 187.22 190.127 187.86ZM188.457 191.26C189.517 191.26 190.127 190.73 190.127 189.37C190.127 188.02 189.517 187.49 188.457 187.49C187.317 187.49 186.777 188.02 186.777 189.37C186.777 190.72 187.317 191.26 188.457 191.26ZM194.901 186.93H195.081V187.72H194.871C193.391 187.67 193.071 188.75 193.071 190.16V192H192.271V187H193.071V188.35C193.371 187.47 193.951 186.93 194.901 186.93ZM198.056 191.55C199.036 191.55 199.486 191.09 199.636 190.46H200.366C200.266 191.22 199.686 192.16 198.026 192.16C196.306 192.16 195.546 191 195.546 189.49C195.546 188 196.366 186.84 198.026 186.84C199.526 186.84 200.376 187.87 200.376 189.33C200.376 189.46 200.376 189.56 200.356 189.68H196.336C196.396 191.05 197.056 191.55 198.056 191.55ZM198.036 187.45C197.086 187.45 196.466 187.9 196.356 189.08H199.596C199.556 187.93 198.966 187.45 198.036 187.45ZM201.159 190.33H201.899C201.959 191.01 202.339 191.55 203.489 191.55C204.369 191.55 204.719 191.24 204.719 190.68C204.719 190.2 204.439 189.94 203.809 189.85L202.649 189.68C201.779 189.56 201.289 189.1 201.289 188.33C201.289 187.4 202.029 186.83 203.289 186.83C204.599 186.83 205.349 187.49 205.409 188.43H204.619C204.569 187.91 204.189 187.44 203.269 187.44C202.419 187.44 202.069 187.78 202.069 188.27C202.069 188.62 202.249 188.92 202.879 189.01L203.939 189.16C205.089 189.33 205.509 189.82 205.509 190.64C205.509 191.66 204.799 192.16 203.469 192.16C201.839 192.16 201.179 191.38 201.159 190.33ZM206.345 190.33H207.085C207.145 191.01 207.525 191.55 208.675 191.55C209.555 191.55 209.905 191.24 209.905 190.68C209.905 190.2 209.625 189.94 208.995 189.85L207.835 189.68C206.965 189.56 206.475 189.1 206.475 188.33C206.475 187.4 207.215 186.83 208.475 186.83C209.785 186.83 210.535 187.49 210.595 188.43H209.805C209.755 187.91 209.375 187.44 208.455 187.44C207.605 187.44 207.255 187.78 207.255 188.27C207.255 188.62 207.435 188.92 208.065 189.01L209.125 189.16C210.275 189.33 210.695 189.82 210.695 190.64C210.695 191.66 209.985 192.16 208.655 192.16C207.025 192.16 206.365 191.38 206.345 190.33Z" fill="#333333"/>
<path d="M283.87 192.17C281.58 192.17 280.55 190.69 280.55 188.67C280.55 186.67 281.6 185.17 283.89 185.17C285.94 185.17 286.87 186.18 287.03 187.83H286.19C286.05 186.53 285.31 185.86 283.87 185.86C282.21 185.86 281.42 186.81 281.42 188.67C281.42 190.53 282.19 191.48 283.85 191.48C285.36 191.48 286.12 190.7 286.21 189.35H287.06C286.95 191.04 286 192.17 283.87 192.17ZM290.451 192.16C288.761 192.16 287.931 191 287.931 189.49C287.931 188 288.761 186.84 290.451 186.84C292.131 186.84 292.961 188.01 292.961 189.49C292.961 190.99 292.131 192.16 290.451 192.16ZM288.741 189.5C288.741 190.9 289.321 191.51 290.451 191.51C291.581 191.51 292.151 190.9 292.151 189.5C292.151 188.09 291.581 187.49 290.451 187.49C289.321 187.49 288.741 188.09 288.741 189.5ZM300.141 186.84C301.281 186.84 301.831 187.5 301.831 188.78V192H301.031V188.87C301.031 187.86 300.621 187.51 299.891 187.51C298.801 187.51 298.311 188.37 298.311 190.09V192H297.531V188.87C297.531 187.86 297.111 187.51 296.381 187.51C295.311 187.51 294.811 188.37 294.811 190.09V192H294.011V187H294.811V188.24C295.111 187.33 295.691 186.84 296.631 186.84C297.611 186.84 298.151 187.32 298.271 188.28C298.561 187.35 299.151 186.84 300.141 186.84ZM305.841 186.84C307.411 186.84 308.131 187.97 308.131 189.5C308.131 191.04 307.411 192.16 305.841 192.16C304.921 192.16 304.291 191.76 303.951 191.05V194H303.151V187H303.951V187.96C304.291 187.25 304.921 186.84 305.841 186.84ZM305.681 191.51C306.821 191.51 307.321 190.85 307.321 189.5C307.321 188.16 306.821 187.49 305.681 187.49C304.621 187.49 303.951 188.09 303.951 189.5C303.951 190.91 304.621 191.51 305.681 191.51ZM310.036 192H309.236V185H310.036V192ZM313.654 191.55C314.634 191.55 315.084 191.09 315.234 190.46H315.964C315.864 191.22 315.284 192.16 313.624 192.16C311.904 192.16 311.144 191 311.144 189.49C311.144 188 311.964 186.84 313.624 186.84C315.124 186.84 315.974 187.87 315.974 189.33C315.974 189.46 315.974 189.56 315.954 189.68H311.934C311.994 191.05 312.654 191.55 313.654 191.55ZM313.634 187.45C312.684 187.45 312.064 187.9 311.954 189.08H315.194C315.154 187.93 314.564 187.45 313.634 187.45ZM319.78 192H318.6C317.64 192 317.39 191.63 317.39 190.83V187.63H316.44V187.18L317.46 186.93L317.76 185.89H318.19V187H319.84V187.63H318.19V191.35H319.78V192ZM322.892 191.55C323.872 191.55 324.322 191.09 324.472 190.46H325.202C325.102 191.22 324.522 192.16 322.862 192.16C321.142 192.16 320.382 191 320.382 189.49C320.382 188 321.202 186.84 322.862 186.84C324.362 186.84 325.212 187.87 325.212 189.33C325.212 189.46 325.212 189.56 325.192 189.68H321.172C321.232 191.05 321.892 191.55 322.892 191.55ZM322.872 187.45C321.922 187.45 321.302 187.9 321.192 189.08H324.432C324.392 187.93 323.802 187.45 322.872 187.45ZM330.266 187.95V185H331.066V192H330.266V191.04C329.926 191.75 329.296 192.16 328.376 192.16C326.806 192.16 326.086 191.03 326.086 189.5C326.086 187.96 326.806 186.84 328.376 186.84C329.296 186.84 329.926 187.24 330.266 187.95ZM328.536 191.51C329.596 191.51 330.266 190.91 330.266 189.5C330.266 188.09 329.596 187.49 328.536 187.49C327.396 187.49 326.896 188.15 326.896 189.5C326.896 190.84 327.396 191.51 328.536 191.51Z" fill="#333333"/>
<path d="M209.784 267.02V272.168H211.128V272.972H209.784V275H208.788V272.972H204.42V272.168L208.224 267.02H209.784ZM208.788 267.644L205.428 272.168H208.788V267.644ZM215.595 269.684C217.287 269.684 218.379 270.68 218.379 272.384C218.379 273.956 217.491 275.204 215.175 275.204C213.051 275.204 212.079 274.196 212.007 272.744H213.027C213.099 273.692 213.687 274.376 215.175 274.376C216.675 274.376 217.335 273.596 217.335 272.396C217.335 271.112 216.627 270.404 215.403 270.404C214.479 270.404 213.795 270.764 213.243 271.448H212.319L212.571 267.02H218.043V267.836H213.447L213.267 270.608C213.747 270.08 214.467 269.684 215.595 269.684ZM220.467 275H219.471V274.856L226.899 267.74H223.239V270.212H219.915V267.02H227.415C227.775 267.02 228.003 267.164 228.003 267.5C228.003 267.68 227.931 267.872 227.655 268.136L220.467 275ZM220.695 267.74V269.492H222.483V267.74H220.695ZM227.895 275H224.571V271.82H227.895V275ZM225.351 272.516V274.28H227.127V272.516H225.351Z" fill="#333333"/>
<g filter="url(#filter1_i_75_955)">
<rect x="212" y="101" width="119" height="32" rx="10" fill="white"/>
</g>
<path d="M257.675 117.76H258.98C259.025 119.11 259.94 120.22 261.68 120.22C263.435 120.22 264.365 119.395 264.365 117.82C264.365 116.545 263.645 115.69 262.235 115.69C261.47 115.69 260.96 115.885 260.39 116.26L259.79 115.465L263.72 112.045H258.05V111.025H265.19V112.045L261.755 115.135C261.98 115.075 262.31 115 262.775 115C264.245 115 265.67 115.93 265.67 117.85C265.67 119.515 264.62 121.255 261.65 121.255C259.025 121.255 257.72 119.725 257.675 117.76ZM271.669 114.355C273.784 114.355 275.149 115.6 275.149 117.73C275.149 119.695 274.039 121.255 271.144 121.255C268.489 121.255 267.274 119.995 267.184 118.18H268.459C268.549 119.365 269.284 120.22 271.144 120.22C273.019 120.22 273.844 119.245 273.844 117.745C273.844 116.14 272.959 115.255 271.429 115.255C270.274 115.255 269.419 115.705 268.729 116.56H267.574L267.889 111.025H274.729V112.045H268.984L268.759 115.51C269.359 114.85 270.259 114.355 271.669 114.355ZM280.896 121.255C277.776 121.255 276.411 119.02 276.411 116.005C276.411 113.035 277.776 110.755 280.896 110.755C284.001 110.755 285.381 113.05 285.381 116.005C285.381 119.005 284.001 121.255 280.896 121.255ZM277.716 116.005C277.716 118.81 278.691 120.22 280.896 120.22C283.086 120.22 284.076 118.81 284.076 116.005C284.076 113.2 283.086 111.79 280.896 111.79C278.691 111.79 277.716 113.2 277.716 116.005Z" fill="#333333"/>
<path d="M36 172L332 172" stroke="#A4A4A5" stroke-width="3" stroke-linecap="round"/>
<path d="M36 172L185 172" stroke="#333333" stroke-width="3" stroke-linecap="round"/>
<circle cx="185" cy="172" r="4" stroke="#7F1BAF" stroke-width="2"/>
<path d="M99 257H198C198.552 257 199 257.448 199 258V286C199 286.552 198.552 287 198 287H99V257Z" fill="#7F1BAF"/>
<line x1="99.5" y1="247" x2="99.5" y2="297" stroke="#333333"/>
<defs>
<filter id="filter0_d_75_955" x="0" y="0" width="368" height="358" filterUnits="userSpaceOnUse" color-interpolation-filters="sRGB">
<feFlood flood-opacity="0" result="BackgroundImageFix"/>
<feColorMatrix in="SourceAlpha" type="matrix" values="0 0 0 0 0 0 0 0 0 0 0 0 0 0 0 0 0 0 127 0" result="hardAlpha"/>
<feOffset dy="4"/>
<feGaussianBlur stdDeviation="2"/>
<feComposite in2="hardAlpha" operator="out"/>
<feColorMatrix type="matrix" values="0 0 0 0 0 0 0 0 0 0 0 0 0 0 0 0 0 0 0.25 0"/>
<feBlend mode="normal" in2="BackgroundImageFix" result="effect1_dropShadow_75_955"/>
<feBlend mode="normal" in="SourceGraphic" in2="effect1_dropShadow_75_955" result="shape"/>
</filter>
<filter id="filter1_i_75_955" x="212" y="101" width="119" height="36" filterUnits="userSpaceOnUse" color-interpolation-filters="sRGB">
<feFlood flood-opacity="0" result="BackgroundImageFix"/>
<feBlend mode="normal" in="SourceGraphic" in2="BackgroundImageFix" result="shape"/>
<feColorMatrix in="SourceAlpha" type="matrix" values="0 0 0 0 0 0 0 0 0 0 0 0 0 0 0 0 0 0 127 0" result="hardAlpha"/>
<feOffset dy="4"/>
<feGaussianBlur stdDeviation="2"/>
<feComposite in2="hardAlpha" operator="arithmetic" k2="-1" k3="1"/>
<feColorMatrix type="matrix" values="0 0 0 0 0 0 0 0 0 0 0 0 0 0 0 0 0 0 0.1 0"/>
<feBlend mode="normal" in2="shape" result="effect1_innerShadow_75_955"/>
</filter>
</defs>
</svg>
