<svg width="368" height="358" viewBox="0 0 368 358" fill="none" xmlns="http://www.w3.org/2000/svg">
<g filter="url(#filter0_d_75_1013)">
<path d="M4 10C4 4.47715 8.47715 0 14 0H354C359.523 0 364 4.47715 364 10V340C364 345.523 359.523 350 354 350H14C8.47716 350 4 345.523 4 340V10Z" fill="#F5F5F5"/>
</g>
<path d="M106.084 37.7C109.144 37.7 110.364 39.68 110.364 42.1C110.364 44.68 109.144 46.66 106.084 46.66H102.204V51H98.6445V37.7H106.084ZM102.204 43.94H104.904C106.184 43.94 106.684 43.16 106.684 42.12C106.684 41.1 106.204 40.4 104.944 40.4H102.204V43.94ZM118.046 40.84H118.886V44.18H117.666C116.006 44.18 115.306 44.98 115.306 47V51H111.866V41H115.206V43.06C115.606 41.62 116.426 40.84 118.046 40.84ZM123.666 39.78H120.106V37.7H123.666V39.78ZM123.606 51H120.166V41H123.606V51ZM134.602 43.5L129.242 48.5H134.642V51H125.042V48.5L130.482 43.5H125.102V41H134.602V43.5ZM141.09 49.02C142.11 49.02 142.73 48.58 143.01 47.98H146.35C146.01 49.7 144.65 51.32 141.01 51.32C136.93 51.32 135.49 48.72 135.49 45.98C135.49 43.08 137.17 40.68 141.01 40.68C145.09 40.68 146.39 43.26 146.39 46.04C146.39 46.36 146.37 46.66 146.33 46.88H138.83C139.03 48.48 139.81 49.02 141.09 49.02ZM141.05 42.94C139.81 42.94 139.09 43.44 138.87 44.88H143.13C143.01 43.62 142.39 42.94 141.05 42.94ZM159.954 37.7C164.274 37.7 166.254 40.86 166.254 44.32C166.254 47.78 164.274 51 159.954 51H153.234V37.7H159.954ZM156.754 48.22H159.154C161.574 48.22 162.574 46.88 162.574 44.32C162.574 41.72 161.554 40.48 159.154 40.48H156.754V48.22ZM171.303 39.78H167.743V37.7H171.303V39.78ZM171.243 51H167.803V41H171.243V51ZM172.692 47.78H175.812C175.892 48.6 176.572 49.26 177.852 49.26C178.972 49.26 179.412 48.9 179.412 48.32C179.412 47.82 179.232 47.4 178.072 47.26L175.952 47.02C174.012 46.8 172.972 45.76 172.972 44.02C172.972 41.64 175.012 40.68 177.692 40.68C180.452 40.68 182.372 41.62 182.572 43.96H179.452C179.352 43.18 178.812 42.72 177.712 42.72C176.552 42.72 176.112 43.14 176.112 43.7C176.112 44.12 176.352 44.5 177.292 44.6L179.352 44.8C181.712 45.04 182.692 46 182.692 47.92C182.692 49.82 181.512 51.32 177.792 51.32C174.132 51.32 172.772 49.62 172.692 47.78ZM190.676 51H188.856C185.796 51 184.836 49.64 184.836 47.06V43.58H183.076V41.98L185.116 41.08L186.536 38.58H188.276V41H190.996V43.58H188.276V48.28H190.676V51ZM198.788 40.84H199.628V44.18H198.408C196.748 44.18 196.048 44.98 196.048 47V51H192.608V41H195.948V43.06C196.348 41.62 197.168 40.84 198.788 40.84ZM204.409 39.78H200.849V37.7H204.409V39.78ZM204.349 51H200.909V41H204.349V51ZM213.336 40.68C216.616 40.68 217.916 43.2 217.916 45.98C217.916 48.84 216.616 51.32 213.336 51.32C211.636 51.32 210.496 50.7 209.816 49.62V51H206.376V37H209.816V42.38C210.496 41.32 211.636 40.68 213.336 40.68ZM212.176 48.64C213.876 48.64 214.476 47.86 214.476 46C214.476 44.14 213.876 43.36 212.176 43.36C210.416 43.36 209.816 44.22 209.816 46C209.816 47.78 210.416 48.64 212.176 48.64ZM219.461 47.08V41H222.901V46.48C222.901 47.82 223.441 48.54 224.661 48.54C226.001 48.54 226.801 47.62 226.801 45.7V41H230.241V51H226.801V49.18C226.161 50.48 225.021 51.32 223.261 51.32C220.641 51.32 219.461 49.7 219.461 47.08ZM238.957 51H237.137C234.077 51 233.117 49.64 233.117 47.06V43.58H231.357V41.98L233.397 41.08L234.817 38.58H236.557V41H239.277V43.58H236.557V48.28H238.957V51ZM244.389 39.78H240.829V37.7H244.389V39.78ZM244.329 51H240.889V41H244.329V51ZM251.542 51.32C247.302 51.32 245.822 48.7 245.822 46C245.822 43.32 247.302 40.68 251.542 40.68C255.782 40.68 257.282 43.32 257.282 46C257.282 48.68 255.782 51.32 251.542 51.32ZM249.262 46C249.262 48 249.902 48.64 251.542 48.64C253.182 48.64 253.822 48 253.822 46C253.822 44 253.182 43.36 251.542 43.36C249.902 43.36 249.262 44 249.262 46ZM265.761 40.68C268.381 40.68 269.521 42.3 269.521 44.92V51H266.081V45.5C266.081 44.18 265.541 43.46 264.341 43.46C262.961 43.46 262.161 44.34 262.161 46.3V51H258.721V41H262.161V42.84C262.821 41.54 263.981 40.68 265.761 40.68Z" fill="#333333"/>
<path d="M35.495 111.025H43.895V112.03H40.325V121.015H39.095V112.03H35.495V111.025ZM46.8096 121.24C44.2746 121.24 43.0296 119.5 43.0296 117.235C43.0296 115 44.2746 113.26 46.8096 113.26C49.3296 113.26 50.5746 115.015 50.5746 117.235C50.5746 119.485 49.3296 121.24 46.8096 121.24ZM44.2446 117.25C44.2446 119.35 45.1146 120.265 46.8096 120.265C48.5046 120.265 49.3596 119.35 49.3596 117.25C49.3596 115.135 48.5046 114.235 46.8096 114.235C45.1146 114.235 44.2446 115.135 44.2446 117.25ZM56.3207 121H54.5507C53.1107 121 52.7357 120.445 52.7357 119.245V114.445H51.3107V113.77L52.8407 113.395L53.2907 111.835H53.9357V113.5H56.4107V114.445H53.9357V120.025H56.3207V121ZM60.0833 121.195C58.6433 121.195 57.6083 120.445 57.6083 119.02C57.6083 117.805 58.2683 117.04 59.8883 116.77L61.7933 116.455C62.5883 116.32 62.9183 116.11 62.9183 115.54C62.9183 114.775 62.5283 114.19 61.0733 114.19C59.6033 114.19 59.0483 114.88 58.9733 115.855H57.7883C57.8333 114.265 58.9583 113.245 61.0283 113.245C63.0833 113.245 64.0133 114.19 64.0133 115.54V119.14C64.0133 119.68 64.0283 120.265 64.1033 121H63.0083C62.9483 120.355 62.9033 119.8 62.9033 119.245C62.6183 120.145 61.8233 121.195 60.0833 121.195ZM60.3233 120.25C62.0933 120.25 62.9183 118.87 62.9183 117.445V116.8C62.5433 117.07 62.1383 117.19 61.5683 117.31L60.3233 117.565C59.3033 117.775 58.8233 118.165 58.8233 118.975C58.8233 119.83 59.4383 120.25 60.3233 120.25ZM67.1628 121H65.9628V110.5H67.1628V121ZM79.8864 120.16V111.025H81.1164V121H79.0314L74.5014 113.17C74.2464 112.69 74.0364 112.255 73.8714 111.865V121H72.6264V111.025H74.7264L79.2564 118.87C79.4514 119.215 79.6914 119.71 79.8864 120.16ZM83.0837 118.285V113.5H84.2837V118.15C84.2837 119.815 85.0187 120.25 86.1737 120.25C87.7337 120.25 88.6187 118.855 88.6187 116.365V113.5H89.8187V121H88.6187V119.065C88.1687 120.475 87.2537 121.24 85.8287 121.24C83.9387 121.24 83.0837 120.25 83.0837 118.285ZM101.057 113.26C102.767 113.26 103.592 114.25 103.592 116.17V121H102.392V116.305C102.392 114.79 101.777 114.265 100.682 114.265C99.0466 114.265 98.3116 115.555 98.3116 118.135V121H97.1416V116.305C97.1416 114.79 96.5116 114.265 95.4166 114.265C93.8116 114.265 93.0616 115.555 93.0616 118.135V121H91.8616V113.5H93.0616V115.36C93.5116 113.995 94.3816 113.26 95.7916 113.26C97.2616 113.26 98.0716 113.98 98.2516 115.42C98.6866 114.025 99.5716 113.26 101.057 113.26ZM109.607 113.26C111.962 113.26 113.042 114.94 113.042 117.25C113.042 119.545 111.962 121.24 109.607 121.24C108.227 121.24 107.282 120.625 106.772 119.56V121H105.572V110.5H106.772V114.925C107.282 113.86 108.227 113.26 109.607 113.26ZM109.367 120.265C111.077 120.265 111.827 119.26 111.827 117.25C111.827 115.225 111.077 114.235 109.367 114.235C107.777 114.235 106.772 115.135 106.772 117.25C106.772 119.365 107.777 120.265 109.367 120.265ZM118.103 120.325C119.573 120.325 120.248 119.635 120.473 118.69H121.568C121.418 119.83 120.548 121.24 118.058 121.24C115.478 121.24 114.338 119.5 114.338 117.235C114.338 115 115.568 113.26 118.058 113.26C120.308 113.26 121.583 114.805 121.583 116.995C121.583 117.19 121.583 117.34 121.553 117.52H115.523C115.613 119.575 116.603 120.325 118.103 120.325ZM118.073 114.175C116.648 114.175 115.718 114.85 115.553 116.62H120.413C120.353 114.895 119.468 114.175 118.073 114.175ZM127.066 113.395H127.336V114.58H127.021C124.801 114.505 124.321 116.125 124.321 118.24V121H123.121V113.5H124.321V115.525C124.771 114.205 125.641 113.395 127.066 113.395ZM135.667 121.24C133.132 121.24 131.887 119.5 131.887 117.235C131.887 115 133.132 113.26 135.667 113.26C138.187 113.26 139.432 115.015 139.432 117.235C139.432 119.485 138.187 121.24 135.667 121.24ZM133.102 117.25C133.102 119.35 133.972 120.265 135.667 120.265C137.362 120.265 138.217 119.35 138.217 117.25C138.217 115.135 137.362 114.235 135.667 114.235C133.972 114.235 133.102 115.135 133.102 117.25ZM142.676 121H141.476V114.445H140.216V113.77L141.476 113.455V112.015C141.476 111.01 141.941 110.5 143.381 110.5H145.286V111.415H142.586V113.5H144.866V114.445H142.676V121ZM159.562 120.205L161.662 111.025H162.907L160.627 121H158.527L156.157 111.97L153.772 121H151.672L149.392 111.025H150.652L152.752 120.205L155.182 111.025H157.132L159.562 120.205ZM165.473 112.27H163.928V111.025H165.473V112.27ZM165.293 121H164.093V113.5H165.293V121ZM171.425 113.26C173.3 113.26 174.095 114.28 174.095 116.215V121H172.895V116.35C172.895 114.745 172.19 114.265 171.095 114.265C169.43 114.265 168.545 115.555 168.545 118.135V121H167.345V113.5H168.545V115.48C169.025 114.04 169.955 113.26 171.425 113.26ZM179.319 120.325C180.789 120.325 181.464 119.635 181.689 118.69H182.784C182.634 119.83 181.764 121.24 179.274 121.24C176.694 121.24 175.554 119.5 175.554 117.235C175.554 115 176.784 113.26 179.274 113.26C181.524 113.26 182.799 114.805 182.799 116.995C182.799 117.19 182.799 117.34 182.769 117.52H176.739C176.829 119.575 177.819 120.325 179.319 120.325ZM179.289 114.175C177.864 114.175 176.934 114.85 176.769 116.62H181.629C181.569 114.895 180.684 114.175 179.289 114.175ZM188.282 113.395H188.552V114.58H188.237C186.017 114.505 185.537 116.125 185.537 118.24V121H184.337V113.5H185.537V115.525C185.987 114.205 186.857 113.395 188.282 113.395ZM189.232 118.495H190.342C190.432 119.515 191.002 120.325 192.727 120.325C194.047 120.325 194.572 119.86 194.572 119.02C194.572 118.3 194.152 117.91 193.207 117.775L191.467 117.52C190.162 117.34 189.427 116.65 189.427 115.495C189.427 114.1 190.537 113.245 192.427 113.245C194.392 113.245 195.517 114.235 195.607 115.645H194.422C194.347 114.865 193.777 114.16 192.397 114.16C191.122 114.16 190.597 114.67 190.597 115.405C190.597 115.93 190.867 116.38 191.812 116.515L193.402 116.74C195.127 116.995 195.757 117.73 195.757 118.96C195.757 120.49 194.692 121.24 192.697 121.24C190.252 121.24 189.262 120.07 189.232 118.495ZM198.271 114.82H196.711V113.5H198.271V114.82ZM198.271 121H196.711V119.68H198.271V121Z" fill="#333333"/>
<path d="M180.5 241.396C180.5 242.5 179.804 243.088 178.388 243.184V244.42H177.428V243.172C175.904 243.004 175.304 242.14 175.28 241H176.168C176.24 241.816 176.648 242.464 177.992 242.464C179.144 242.464 179.552 242.104 179.552 241.444C179.552 240.832 179.216 240.532 178.46 240.424L177.068 240.22C176.024 240.076 175.436 239.536 175.436 238.6C175.436 237.616 176.192 236.956 177.428 236.824V235.6H178.388V236.824C179.648 236.98 180.32 237.712 180.38 238.72H179.432C179.372 238.096 178.976 237.532 177.872 237.532C176.852 237.532 176.372 237.94 176.372 238.528C176.372 238.948 176.588 239.308 177.344 239.416L178.7 239.608C179.996 239.8 180.5 240.4 180.5 241.396ZM185.177 238.684C186.869 238.684 187.961 239.68 187.961 241.384C187.961 242.956 187.073 244.204 184.757 244.204C182.633 244.204 181.661 243.196 181.589 241.744H182.609C182.681 242.692 183.269 243.376 184.757 243.376C186.257 243.376 186.917 242.596 186.917 241.396C186.917 240.112 186.209 239.404 184.985 239.404C184.061 239.404 183.377 239.764 182.825 240.448H181.901L182.153 236.02H187.625V236.836H183.029L182.849 239.608C183.329 239.08 184.049 238.684 185.177 238.684ZM192.558 244.204C190.062 244.204 188.97 242.416 188.97 240.004C188.97 237.628 190.062 235.804 192.558 235.804C195.042 235.804 196.146 237.64 196.146 240.004C196.146 242.404 195.042 244.204 192.558 244.204ZM190.014 240.004C190.014 242.248 190.794 243.376 192.558 243.376C194.31 243.376 195.102 242.248 195.102 240.004C195.102 237.76 194.31 236.632 192.558 236.632C190.794 236.632 190.014 237.76 190.014 240.004ZM200.855 244.204C198.359 244.204 197.267 242.416 197.267 240.004C197.267 237.628 198.359 235.804 200.855 235.804C203.339 235.804 204.443 237.64 204.443 240.004C204.443 242.404 203.339 244.204 200.855 244.204ZM198.311 240.004C198.311 242.248 199.091 243.376 200.855 243.376C202.607 243.376 203.399 242.248 203.399 240.004C203.399 237.76 202.607 236.632 200.855 236.632C199.091 236.632 198.311 237.76 198.311 240.004Z" fill="#333333"/>
<path d="M220.395 241.396C220.395 242.5 219.699 243.088 218.283 243.184V244.42H217.323V243.172C215.799 243.004 215.199 242.14 215.175 241H216.063C216.135 241.816 216.543 242.464 217.887 242.464C219.039 242.464 219.447 242.104 219.447 241.444C219.447 240.832 219.111 240.532 218.355 240.424L216.963 240.22C215.919 240.076 215.331 239.536 215.331 238.6C215.331 237.616 216.087 236.956 217.323 236.824V235.6H218.283V236.824C219.543 236.98 220.215 237.712 220.275 238.72H219.327C219.267 238.096 218.871 237.532 217.767 237.532C216.747 237.532 216.267 237.94 216.267 238.528C216.267 238.948 216.483 239.308 217.239 239.416L218.595 239.608C219.891 239.8 220.395 240.4 220.395 241.396ZM221.446 241.408H222.49C222.526 242.488 223.258 243.376 224.65 243.376C226.054 243.376 226.798 242.716 226.798 241.456C226.798 240.436 226.222 239.752 225.094 239.752C224.482 239.752 224.074 239.908 223.618 240.208L223.138 239.572L226.282 236.836H221.746V236.02H227.458V236.836L224.71 239.308C224.89 239.26 225.154 239.2 225.526 239.2C226.702 239.2 227.842 239.944 227.842 241.48C227.842 242.812 227.002 244.204 224.626 244.204C222.526 244.204 221.482 242.98 221.446 241.408ZM232.558 244.204C230.062 244.204 228.97 242.416 228.97 240.004C228.97 237.628 230.062 235.804 232.558 235.804C235.042 235.804 236.146 237.64 236.146 240.004C236.146 242.404 235.042 244.204 232.558 244.204ZM230.014 240.004C230.014 242.248 230.794 243.376 232.558 243.376C234.31 243.376 235.102 242.248 235.102 240.004C235.102 237.76 234.31 236.632 232.558 236.632C230.794 236.632 230.014 237.76 230.014 240.004ZM240.855 244.204C238.359 244.204 237.267 242.416 237.267 240.004C237.267 237.628 238.359 235.804 240.855 235.804C243.339 235.804 244.443 237.64 244.443 240.004C244.443 242.404 243.339 244.204 240.855 244.204ZM238.311 240.004C238.311 242.248 239.091 243.376 240.855 243.376C242.607 243.376 243.399 242.248 243.399 240.004C243.399 237.76 242.607 236.632 240.855 236.632C239.091 236.632 238.311 237.76 238.311 240.004Z" fill="#333333"/>
<path d="M140.442 241.396C140.442 242.5 139.746 243.088 138.33 243.184V244.42H137.37V243.172C135.846 243.004 135.246 242.14 135.222 241H136.11C136.182 241.816 136.59 242.464 137.934 242.464C139.086 242.464 139.494 242.104 139.494 241.444C139.494 240.832 139.158 240.532 138.402 240.424L137.01 240.22C135.966 240.076 135.378 239.536 135.378 238.6C135.378 237.616 136.134 236.956 137.37 236.824V235.6H138.33V236.824C139.59 236.98 140.262 237.712 140.322 238.72H139.374C139.314 238.096 138.918 237.532 137.814 237.532C136.794 237.532 136.314 237.94 136.314 238.528C136.314 238.948 136.53 239.308 137.286 239.416L138.642 239.608C139.938 239.8 140.442 240.4 140.442 241.396ZM147.937 244H141.745V243.184L145.705 239.86C146.485 239.2 146.737 238.756 146.737 238.06C146.737 237.244 146.221 236.632 145.033 236.632C143.449 236.632 142.789 237.556 142.765 239.188H141.733C141.769 237.364 142.621 235.804 145.021 235.804C147.037 235.804 147.781 236.884 147.781 238.048C147.781 239.092 147.193 239.836 145.873 240.928L143.173 243.184H147.937V244ZM152.558 244.204C150.062 244.204 148.97 242.416 148.97 240.004C148.97 237.628 150.062 235.804 152.558 235.804C155.042 235.804 156.146 237.64 156.146 240.004C156.146 242.404 155.042 244.204 152.558 244.204ZM150.014 240.004C150.014 242.248 150.794 243.376 152.558 243.376C154.31 243.376 155.102 242.248 155.102 240.004C155.102 237.76 154.31 236.632 152.558 236.632C150.794 236.632 150.014 237.76 150.014 240.004ZM160.855 244.204C158.359 244.204 157.267 242.416 157.267 240.004C157.267 237.628 158.359 235.804 160.855 235.804C163.339 235.804 164.443 237.64 164.443 240.004C164.443 242.404 163.339 244.204 160.855 244.204ZM158.311 240.004C158.311 242.248 159.091 243.376 160.855 243.376C162.607 243.376 163.399 242.248 163.399 240.004C163.399 237.76 162.607 236.632 160.855 236.632C159.091 236.632 158.311 237.76 158.311 240.004Z" fill="#333333"/>
<path d="M108.546 279.02V284.168H109.89V284.972H108.546V287H107.55V284.972H103.182V284.168L106.986 279.02H108.546ZM107.55 279.644L104.19 284.168H107.55V279.644ZM114.498 287H113.082C111.93 287 111.63 286.556 111.63 285.596V281.756H110.49V281.216L111.714 280.916L112.074 279.668H112.59V281H114.57V281.756H112.59V286.22H114.498V287ZM119.054 280.808C120.554 280.808 121.19 281.624 121.19 283.172V287H120.23V283.28C120.23 281.996 119.666 281.612 118.79 281.612C117.458 281.612 116.75 282.644 116.75 284.708V287H115.79V278.6H116.75V282.584C117.134 281.432 117.878 280.808 119.054 280.808ZM129.117 279.02C130.833 279.02 131.529 280.064 131.529 281.348C131.529 282.62 130.833 283.688 129.069 283.688H126.465V287H125.457V279.02H129.117ZM126.465 282.884H128.865C130.053 282.884 130.485 282.26 130.485 281.348C130.485 280.4 130.053 279.824 128.901 279.824H126.465V282.884ZM133.824 287H132.864V278.6H133.824V287ZM137.254 287.156C136.102 287.156 135.274 286.556 135.274 285.416C135.274 284.444 135.802 283.832 137.098 283.616L138.622 283.364C139.258 283.256 139.522 283.088 139.522 282.632C139.522 282.02 139.21 281.552 138.046 281.552C136.87 281.552 136.426 282.104 136.366 282.884H135.418C135.454 281.612 136.354 280.796 138.01 280.796C139.654 280.796 140.398 281.552 140.398 282.632V285.512C140.398 285.944 140.41 286.412 140.47 287H139.594C139.546 286.484 139.51 286.04 139.51 285.596C139.282 286.316 138.646 287.156 137.254 287.156ZM137.446 286.4C138.862 286.4 139.522 285.296 139.522 284.156V283.64C139.222 283.856 138.898 283.952 138.442 284.048L137.446 284.252C136.63 284.42 136.246 284.732 136.246 285.38C136.246 286.064 136.738 286.4 137.446 286.4ZM141.623 284C141.623 282.164 142.679 280.808 144.623 280.808C146.423 280.808 147.323 281.804 147.419 283.196H146.519C146.375 282.212 145.775 281.588 144.659 281.588C143.387 281.588 142.595 282.272 142.595 284C142.595 285.74 143.363 286.412 144.623 286.412C145.835 286.412 146.459 285.728 146.579 284.708H147.491C147.419 286.088 146.447 287.192 144.623 287.192C142.655 287.192 141.623 285.836 141.623 284ZM151.443 286.46C152.619 286.46 153.159 285.908 153.339 285.152H154.215C154.095 286.064 153.399 287.192 151.407 287.192C149.343 287.192 148.431 285.8 148.431 283.988C148.431 282.2 149.415 280.808 151.407 280.808C153.207 280.808 154.227 282.044 154.227 283.796C154.227 283.952 154.227 284.072 154.203 284.216H149.379C149.451 285.86 150.243 286.46 151.443 286.46ZM151.419 281.54C150.279 281.54 149.535 282.08 149.403 283.496H153.291C153.243 282.116 152.535 281.54 151.419 281.54ZM156.27 282.056H155.022V281H156.27V282.056ZM156.27 287H155.022V285.944H156.27V287ZM164.875 284.396C164.875 285.5 164.179 286.088 162.763 286.184V287.42H161.803V286.172C160.279 286.004 159.679 285.14 159.655 284H160.543C160.615 284.816 161.023 285.464 162.367 285.464C163.519 285.464 163.927 285.104 163.927 284.444C163.927 283.832 163.591 283.532 162.835 283.424L161.443 283.22C160.399 283.076 159.811 282.536 159.811 281.6C159.811 280.616 160.567 279.956 161.803 279.824V278.6H162.763V279.824C164.023 279.98 164.695 280.712 164.755 281.72H163.807C163.747 281.096 163.351 280.532 162.247 280.532C161.227 280.532 160.747 280.94 160.747 281.528C160.747 281.948 160.963 282.308 161.719 282.416L163.075 282.608C164.371 282.8 164.875 283.4 164.875 284.396ZM170.526 287H165.978V286.184H167.838V279.836H165.99V279.02H167.694C168.522 279.02 168.822 279.38 168.822 280.016V286.184H170.526V287ZM174.825 281.684C176.517 281.684 177.609 282.68 177.609 284.384C177.609 285.956 176.721 287.204 174.405 287.204C172.281 287.204 171.309 286.196 171.237 284.744H172.257C172.329 285.692 172.917 286.376 174.405 286.376C175.905 286.376 176.565 285.596 176.565 284.396C176.565 283.112 175.857 282.404 174.633 282.404C173.709 282.404 173.025 282.764 172.473 283.448H171.549L171.801 279.02H177.273V279.836H172.677L172.497 282.608C172.977 282.08 173.697 281.684 174.825 281.684ZM182.207 287.204C179.711 287.204 178.619 285.416 178.619 283.004C178.619 280.628 179.711 278.804 182.207 278.804C184.691 278.804 185.795 280.64 185.795 283.004C185.795 285.404 184.691 287.204 182.207 287.204ZM179.663 283.004C179.663 285.248 180.443 286.376 182.207 286.376C183.959 286.376 184.751 285.248 184.751 283.004C184.751 280.76 183.959 279.632 182.207 279.632C180.443 279.632 179.663 280.76 179.663 283.004ZM191.003 289.4H190.007V278.06H191.003V289.4ZM198.86 281.684C200.552 281.684 201.644 282.68 201.644 284.384C201.644 285.956 200.756 287.204 198.44 287.204C196.316 287.204 195.344 286.196 195.272 284.744H196.292C196.364 285.692 196.952 286.376 198.44 286.376C199.94 286.376 200.6 285.596 200.6 284.396C200.6 283.112 199.892 282.404 198.668 282.404C197.744 282.404 197.06 282.764 196.508 283.448H195.584L195.836 279.02H201.308V279.836H196.712L196.532 282.608C197.012 282.08 197.732 281.684 198.86 281.684ZM206.467 287H205.051C203.899 287 203.599 286.556 203.599 285.596V281.756H202.459V281.216L203.683 280.916L204.043 279.668H204.559V281H206.539V281.756H204.559V286.22H206.467V287ZM211.023 280.808C212.523 280.808 213.159 281.624 213.159 283.172V287H212.199V283.28C212.199 281.996 211.635 281.612 210.759 281.612C209.427 281.612 208.719 282.644 208.719 284.708V287H207.759V278.6H208.719V282.584C209.103 281.432 209.847 280.808 211.023 280.808ZM221.085 279.02C222.801 279.02 223.497 280.064 223.497 281.348C223.497 282.62 222.801 283.688 221.037 283.688H218.433V287H217.425V279.02H221.085ZM218.433 282.884H220.833C222.021 282.884 222.453 282.26 222.453 281.348C222.453 280.4 222.021 279.824 220.869 279.824H218.433V282.884ZM225.793 287H224.833V278.6H225.793V287ZM229.223 287.156C228.071 287.156 227.243 286.556 227.243 285.416C227.243 284.444 227.771 283.832 229.067 283.616L230.591 283.364C231.227 283.256 231.491 283.088 231.491 282.632C231.491 282.02 231.179 281.552 230.015 281.552C228.839 281.552 228.395 282.104 228.335 282.884H227.387C227.423 281.612 228.323 280.796 229.979 280.796C231.623 280.796 232.367 281.552 232.367 282.632V285.512C232.367 285.944 232.379 286.412 232.439 287H231.563C231.515 286.484 231.479 286.04 231.479 285.596C231.251 286.316 230.615 287.156 229.223 287.156ZM229.415 286.4C230.831 286.4 231.491 285.296 231.491 284.156V283.64C231.191 283.856 230.867 283.952 230.411 284.048L229.415 284.252C228.599 284.42 228.215 284.732 228.215 285.38C228.215 286.064 228.707 286.4 229.415 286.4ZM233.592 284C233.592 282.164 234.648 280.808 236.592 280.808C238.392 280.808 239.292 281.804 239.388 283.196H238.488C238.344 282.212 237.744 281.588 236.628 281.588C235.356 281.588 234.564 282.272 234.564 284C234.564 285.74 235.332 286.412 236.592 286.412C237.804 286.412 238.428 285.728 238.548 284.708H239.46C239.388 286.088 238.416 287.192 236.592 287.192C234.624 287.192 233.592 285.836 233.592 284ZM243.412 286.46C244.588 286.46 245.128 285.908 245.308 285.152H246.184C246.064 286.064 245.368 287.192 243.376 287.192C241.312 287.192 240.4 285.8 240.4 283.988C240.4 282.2 241.384 280.808 243.376 280.808C245.176 280.808 246.196 282.044 246.196 283.796C246.196 283.952 246.196 284.072 246.172 284.216H241.348C241.42 285.86 242.212 286.46 243.412 286.46ZM243.388 281.54C242.248 281.54 241.504 282.08 241.372 283.496H245.26C245.212 282.116 244.504 281.54 243.388 281.54ZM248.238 282.056H246.99V281H248.238V282.056ZM248.238 287H246.99V285.944H248.238V287ZM256.844 284.396C256.844 285.5 256.148 286.088 254.732 286.184V287.42H253.772V286.172C252.248 286.004 251.648 285.14 251.624 284H252.512C252.584 284.816 252.992 285.464 254.336 285.464C255.488 285.464 255.896 285.104 255.896 284.444C255.896 283.832 255.56 283.532 254.804 283.424L253.412 283.22C252.368 283.076 251.78 282.536 251.78 281.6C251.78 280.616 252.536 279.956 253.772 279.824V278.6H254.732V279.824C255.992 279.98 256.664 280.712 256.724 281.72H255.776C255.716 281.096 255.32 280.532 254.216 280.532C253.196 280.532 252.716 280.94 252.716 281.528C252.716 281.948 252.932 282.308 253.688 282.416L255.044 282.608C256.34 282.8 256.844 283.4 256.844 284.396ZM262.495 287H257.947V286.184H259.807V279.836H257.959V279.02H259.663C260.491 279.02 260.791 279.38 260.791 280.016V286.184H262.495V287ZM266.558 287.204C264.062 287.204 262.97 285.416 262.97 283.004C262.97 280.628 264.062 278.804 266.558 278.804C269.042 278.804 270.146 280.64 270.146 283.004C270.146 285.404 269.042 287.204 266.558 287.204ZM264.014 283.004C264.014 285.248 264.794 286.376 266.558 286.376C268.31 286.376 269.102 285.248 269.102 283.004C269.102 280.76 268.31 279.632 266.558 279.632C264.794 279.632 264.014 280.76 264.014 283.004ZM274.855 287.204C272.359 287.204 271.267 285.416 271.267 283.004C271.267 280.628 272.359 278.804 274.855 278.804C277.339 278.804 278.443 280.64 278.443 283.004C278.443 285.404 277.339 287.204 274.855 287.204ZM272.311 283.004C272.311 285.248 273.091 286.376 274.855 286.376C276.607 286.376 277.399 285.248 277.399 283.004C277.399 280.76 276.607 279.632 274.855 279.632C273.091 279.632 272.311 280.76 272.311 283.004Z" fill="#333333"/>
<path d="M189.292 160H184.744V159.184H186.604V152.836H184.756V152.02H186.46C187.288 152.02 187.588 152.38 187.588 153.016V159.184H189.292V160ZM193.765 153.364C193.765 154.012 193.593 154.516 193.249 154.876C192.905 155.228 192.445 155.404 191.869 155.404C191.333 155.404 190.889 155.232 190.537 154.888C190.185 154.536 190.009 154.028 190.009 153.364C190.009 152.708 190.177 152.208 190.513 151.864C190.849 151.512 191.309 151.336 191.893 151.336C192.269 151.336 192.597 151.416 192.877 151.576C193.157 151.728 193.373 151.956 193.525 152.26C193.685 152.556 193.765 152.924 193.765 153.364ZM190.765 153.364C190.765 153.828 190.853 154.18 191.029 154.42C191.205 154.652 191.489 154.768 191.881 154.768C192.273 154.768 192.557 154.652 192.733 154.42C192.909 154.18 192.997 153.828 192.997 153.364C192.997 152.892 192.909 152.544 192.733 152.32C192.557 152.088 192.273 151.972 191.881 151.972C191.489 151.972 191.205 152.088 191.029 152.32C190.853 152.544 190.765 152.892 190.765 153.364Z" fill="#333333"/>
<path d="M229.984 188H223.792V187.184L227.752 183.86C228.532 183.2 228.784 182.756 228.784 182.06C228.784 181.244 228.268 180.632 227.08 180.632C225.496 180.632 224.836 181.556 224.812 183.188H223.78C223.816 181.364 224.668 179.804 227.068 179.804C229.084 179.804 229.828 180.884 229.828 182.048C229.828 183.092 229.24 183.836 227.92 184.928L225.22 187.184H229.984V188ZM234.745 181.364C234.745 182.012 234.573 182.516 234.229 182.876C233.885 183.228 233.425 183.404 232.849 183.404C232.313 183.404 231.869 183.232 231.517 182.888C231.165 182.536 230.989 182.028 230.989 181.364C230.989 180.708 231.157 180.208 231.493 179.864C231.829 179.512 232.289 179.336 232.873 179.336C233.249 179.336 233.577 179.416 233.857 179.576C234.137 179.728 234.353 179.956 234.505 180.26C234.665 180.556 234.745 180.924 234.745 181.364ZM231.745 181.364C231.745 181.828 231.833 182.18 232.009 182.42C232.185 182.652 232.469 182.768 232.861 182.768C233.253 182.768 233.537 182.652 233.713 182.42C233.889 182.18 233.977 181.828 233.977 181.364C233.977 180.892 233.889 180.544 233.713 180.32C233.537 180.088 233.253 179.972 232.861 179.972C232.469 179.972 232.185 180.088 232.009 180.32C231.833 180.544 231.745 180.892 231.745 181.364Z" fill="#333333"/>
<path d="M143.54 205.408H144.584C144.62 206.488 145.352 207.376 146.744 207.376C148.148 207.376 148.892 206.716 148.892 205.456C148.892 204.436 148.316 203.752 147.188 203.752C146.576 203.752 146.168 203.908 145.712 204.208L145.232 203.572L148.376 200.836H143.84V200.02H149.552V200.836L146.804 203.308C146.984 203.26 147.248 203.2 147.62 203.2C148.796 203.2 149.936 203.944 149.936 205.48C149.936 206.812 149.096 208.204 146.72 208.204C144.62 208.204 143.576 206.98 143.54 205.408ZM154.675 201.364C154.675 202.012 154.503 202.516 154.159 202.876C153.815 203.228 153.355 203.404 152.779 203.404C152.243 203.404 151.799 203.232 151.447 202.888C151.095 202.536 150.919 202.028 150.919 201.364C150.919 200.708 151.087 200.208 151.423 199.864C151.759 199.512 152.219 199.336 152.803 199.336C153.179 199.336 153.507 199.416 153.787 199.576C154.067 199.728 154.283 199.956 154.435 200.26C154.595 200.556 154.675 200.924 154.675 201.364ZM151.675 201.364C151.675 201.828 151.763 202.18 151.939 202.42C152.115 202.652 152.399 202.768 152.791 202.768C153.183 202.768 153.467 202.652 153.643 202.42C153.819 202.18 153.907 201.828 153.907 201.364C153.907 200.892 153.819 200.544 153.643 200.32C153.467 200.088 153.183 199.972 152.791 199.972C152.399 199.972 152.115 200.088 151.939 200.32C151.763 200.544 151.675 200.892 151.675 201.364Z" fill="#333333"/>
<path d="M170 231V164C170 163.448 170.448 163 171 163H209C209.552 163 210 163.448 210 164V231H170Z" fill="#7F1BAF"/>
<path d="M210 231V192C210 191.448 210.448 191 211 191H249C249.552 191 250 191.448 250 192V231H210Z" fill="#333333"/>
<path d="M130 231V212C130 211.448 130.448 211 131 211H169C169.552 211 170 211.448 170 212V231H130Z" fill="#A4A4A5"/>
<line x1="36" y1="230.5" x2="316" y2="230.5" stroke="#333333"/>
<path d="M170 247C170 247.276 170.224 247.5 170.5 247.5C170.776 247.5 171 247.276 171 247H170ZM170 231V247H171V231H170Z" fill="black"/>
<path d="M129.5 247C129.5 247.276 129.724 247.5 130 247.5C130.276 247.5 130.5 247.276 130.5 247H129.5ZM129.5 231V247H130.5V231H129.5Z" fill="black"/>
<path d="M249.5 247C249.5 247.276 249.724 247.5 250 247.5C250.276 247.5 250.5 247.276 250.5 247H249.5ZM249.5 231V247H250.5V231H249.5Z" fill="black"/>
<path d="M210 247C210 247.276 210.224 247.5 210.5 247.5C210.776 247.5 211 247.276 211 247H210ZM210 231V247H211V231H210Z" fill="black"/>
<g filter="url(#filter1_i_75_1013)">
<rect x="225" y="102" width="90" height="30" rx="10" fill="white"/>
</g>
<path d="M271.847 114.855C273.962 114.855 275.327 116.1 275.327 118.23C275.327 120.195 274.217 121.755 271.322 121.755C268.667 121.755 267.452 120.495 267.362 118.68H268.637C268.727 119.865 269.462 120.72 271.322 120.72C273.197 120.72 274.022 119.745 274.022 118.245C274.022 116.64 273.137 115.755 271.607 115.755C270.452 115.755 269.597 116.205 268.907 117.06H267.752L268.067 111.525H274.907V112.545H269.162L268.937 116.01C269.537 115.35 270.437 114.855 271.847 114.855Z" fill="#333333"/>
<defs>
<filter id="filter0_d_75_1013" x="0" y="0" width="368" height="358" filterUnits="userSpaceOnUse" color-interpolation-filters="sRGB">
<feFlood flood-opacity="0" result="BackgroundImageFix"/>
<feColorMatrix in="SourceAlpha" type="matrix" values="0 0 0 0 0 0 0 0 0 0 0 0 0 0 0 0 0 0 127 0" result="hardAlpha"/>
<feOffset dy="4"/>
<feGaussianBlur stdDeviation="2"/>
<feComposite in2="hardAlpha" operator="out"/>
<feColorMatrix type="matrix" values="0 0 0 0 0 0 0 0 0 0 0 0 0 0 0 0 0 0 0.25 0"/>
<feBlend mode="normal" in2="BackgroundImageFix" result="effect1_dropShadow_75_1013"/>
<feBlend mode="normal" in="SourceGraphic" in2="effect1_dropShadow_75_1013" result="shape"/>
</filter>
<filter id="filter1_i_75_1013" x="225" y="102" width="90" height="34" filterUnits="userSpaceOnUse" color-interpolation-filters="sRGB">
<feFlood flood-opacity="0" result="BackgroundImageFix"/>
<feBlend mode="normal" in="SourceGraphic" in2="BackgroundImageFix" result="shape"/>
<feColorMatrix in="SourceAlpha" type="matrix" values="0 0 0 0 0 0 0 0 0 0 0 0 0 0 0 0 0 0 127 0" result="hardAlpha"/>
<feOffset dy="4"/>
<feGaussianBlur stdDeviation="2"/>
<feComposite in2="hardAlpha" operator="arithmetic" k2="-1" k3="1"/>
<feColorMatrix type="matrix" values="0 0 0 0 0 0 0 0 0 0 0 0 0 0 0 0 0 0 0.1 0"/>
<feBlend mode="normal" in2="shape" result="effect1_innerShadow_75_1013"/>
</filter>
</defs>
</svg>
