<svg width="132" height="74" viewBox="0 0 132 74" fill="none" xmlns="http://www.w3.org/2000/svg">
<path d="M7.54 69.34C3.14 69.34 1.1 66.38 1.1 62.34C1.1 58.32 3.24 55.34 7.84 55.34C11.8 55.34 13.8 57.14 14.18 60.46H12.46C12.12 57.9 10.72 56.72 7.78 56.72C4.4 56.72 2.84 58.58 2.84 62.34C2.84 66.04 4.34 67.96 7.78 67.96C10.88 67.96 12.16 66.16 12.54 63.68H6.54V62.44H14.16V68.98H12.66V65.74C12.08 67.68 10.58 69.34 7.54 69.34ZM16.885 65.38V59H18.485V65.2C18.485 67.42 19.465 68 21.005 68C23.085 68 24.265 66.14 24.265 62.82V59H25.865V69H24.265V66.42C23.665 68.3 22.445 69.32 20.545 69.32C18.025 69.32 16.885 68 16.885 65.38ZM30.4289 57.36H28.3689V55.7H30.4289V57.36ZM30.1889 69H28.5889V59H30.1889V69ZM40.4142 60.9V55H42.0142V69H40.4142V67.08C39.7342 68.5 38.4742 69.32 36.6342 69.32C33.4942 69.32 32.0542 67.06 32.0542 64C32.0542 60.92 33.4942 58.68 36.6342 58.68C38.4742 58.68 39.7342 59.48 40.4142 60.9ZM36.9542 68.02C39.0742 68.02 40.4142 66.82 40.4142 64C40.4142 61.18 39.0742 59.98 36.9542 59.98C34.6742 59.98 33.6742 61.3 33.6742 64C33.6742 66.68 34.6742 68.02 36.9542 68.02ZM49.0855 68.1C51.0455 68.1 51.9455 67.18 52.2455 65.92H53.7055C53.5055 67.44 52.3455 69.32 49.0255 69.32C45.5855 69.32 44.0655 67 44.0655 63.98C44.0655 61 45.7055 58.68 49.0255 58.68C52.0255 58.68 53.7255 60.74 53.7255 63.66C53.7255 63.92 53.7255 64.12 53.6855 64.36H45.6455C45.7655 67.1 47.0855 68.1 49.0855 68.1ZM49.0455 59.9C47.1455 59.9 45.9055 60.8 45.6855 63.16H52.1655C52.0855 60.86 50.9055 59.9 49.0455 59.9ZM57.4931 69H55.8931V55H57.4931V69ZM62.2258 57.36H60.1658V55.7H62.2258V57.36ZM61.9858 69H60.3858V59H61.9858V69ZM70.1617 58.68C72.6617 58.68 73.7217 60.04 73.7217 62.62V69H72.1217V62.8C72.1217 60.66 71.1817 60.02 69.7217 60.02C67.5017 60.02 66.3217 61.74 66.3217 65.18V69H64.7217V59H66.3217V61.64C66.9617 59.72 68.2017 58.68 70.1617 58.68ZM80.687 68.1C82.647 68.1 83.547 67.18 83.847 65.92H85.307C85.107 67.44 83.947 69.32 80.627 69.32C77.187 69.32 75.667 67 75.667 63.98C75.667 61 77.307 58.68 80.627 58.68C83.627 58.68 85.327 60.74 85.327 63.66C85.327 63.92 85.327 64.12 85.287 64.36H77.247C77.367 67.1 78.687 68.1 80.687 68.1ZM80.647 59.9C78.747 59.9 77.507 60.8 77.287 63.16H83.767C83.687 60.86 82.507 59.9 80.647 59.9ZM86.8928 65.66H88.3728C88.4928 67.02 89.2528 68.1 91.5528 68.1C93.3128 68.1 94.0128 67.48 94.0128 66.36C94.0128 65.4 93.4528 64.88 92.1928 64.7L89.8728 64.36C88.1328 64.12 87.1528 63.2 87.1528 61.66C87.1528 59.8 88.6328 58.66 91.1528 58.66C93.7728 58.66 95.2728 59.98 95.3928 61.86H93.8128C93.7128 60.82 92.9528 59.88 91.1128 59.88C89.4128 59.88 88.7128 60.56 88.7128 61.54C88.7128 62.24 89.0728 62.84 90.3328 63.02L92.4528 63.32C94.7528 63.66 95.5928 64.64 95.5928 66.28C95.5928 68.32 94.1728 69.32 91.5128 69.32C88.2528 69.32 86.9328 67.76 86.8928 65.66ZM99.1211 69H97.0411V67.24H99.1211V69ZM106.312 58.68C109.452 58.68 110.892 60.94 110.892 64C110.892 67.08 109.452 69.32 106.312 69.32C104.472 69.32 103.212 68.52 102.532 67.1V73H100.932V59H102.532V60.92C103.212 59.5 104.472 58.68 106.312 58.68ZM105.992 68.02C108.272 68.02 109.272 66.7 109.272 64C109.272 61.32 108.272 59.98 105.992 59.98C103.872 59.98 102.532 61.18 102.532 64C102.532 66.82 103.872 68.02 105.992 68.02ZM121.059 60.9V55H122.659V69H121.059V67.08C120.379 68.5 119.119 69.32 117.279 69.32C114.139 69.32 112.699 67.06 112.699 64C112.699 60.92 114.139 58.68 117.279 58.68C119.119 58.68 120.379 59.48 121.059 60.9ZM117.599 68.02C119.719 68.02 121.059 66.82 121.059 64C121.059 61.18 119.719 59.98 117.599 59.98C115.319 59.98 114.319 61.3 114.319 64C114.319 66.68 115.319 68.02 117.599 68.02ZM127.923 69H126.323V60.26H124.643V59.36L126.323 58.94V57.02C126.323 55.68 126.943 55 128.863 55H131.403V56.22H127.803V59H130.843V60.26H127.923V69Z" fill="#A4A4A5"/>
<path d="M82.125 21H69C67.8065 21 66.6619 20.5259 65.818 19.682C64.9741 18.8381 64.5 17.6935 64.5 16.5V3.375C64.5 3.27554 64.4605 3.18016 64.3902 3.10984C64.3198 3.03951 64.2245 3 64.125 3H55.5C53.9087 3 52.3826 3.63214 51.2574 4.75736C50.1321 5.88258 49.5 7.4087 49.5 9V39C49.5 40.5913 50.1321 42.1174 51.2574 43.2426C52.3826 44.3679 53.9087 45 55.5 45H76.5C78.0913 45 79.6174 44.3679 80.7426 43.2426C81.8679 42.1174 82.5 40.5913 82.5 39V21.375C82.5 21.2755 82.4605 21.1802 82.3902 21.1098C82.3198 21.0395 82.2245 21 82.125 21Z" fill="#A4A4A5"/>
<path d="M81.3019 17.6803L67.8197 4.19808C67.7935 4.17202 67.7601 4.15428 67.7239 4.14711C67.6876 4.13994 67.65 4.14366 67.6159 4.15778C67.5817 4.17191 67.5525 4.19582 67.5318 4.22651C67.5112 4.2572 67.5002 4.2933 67.5 4.33027V16.5C67.5 16.8978 67.658 17.2793 67.9393 17.5606C68.2206 17.8419 68.6022 18 69 18H81.1697C81.2067 17.9998 81.2428 17.9887 81.2734 17.9681C81.3041 17.9475 81.328 17.9183 81.3422 17.8841C81.3563 17.8499 81.36 17.8124 81.3528 17.7761C81.3457 17.7398 81.3279 17.7065 81.3019 17.6803Z" fill="#A4A4A5"/>
</svg>
