<svg width="32" height="32" viewBox="0 0 32 32" fill="none" xmlns="http://www.w3.org/2000/svg">
<path fill-rule="evenodd" clip-rule="evenodd" d="M26.8414 4.21338C26.0913 3.4635 25.074 3.04224 24.0134 3.04224C22.9527 3.04224 21.9355 3.4635 21.1854 4.21338L20.2427 5.15738L26.8427 11.7574L27.784 10.8147C28.1555 10.4433 28.4502 10.0023 28.6513 9.51694C28.8524 9.03159 28.9558 8.51139 28.9558 7.98605C28.9558 7.4607 28.8524 6.94051 28.6513 6.45516C28.4502 5.96981 28.1555 5.52883 27.784 5.15738L26.8414 4.21338ZM24.956 13.6427L18.356 7.04272L6.23603 19.164C5.97081 19.4293 5.78554 19.7638 5.70137 20.1294L4.32937 26.0694C4.27825 26.2899 4.28411 26.5198 4.34641 26.7374C4.4087 26.9551 4.52538 27.1532 4.68545 27.3133C4.84551 27.4734 5.04369 27.59 5.26132 27.6523C5.47895 27.7146 5.70885 27.7205 5.92937 27.6694L11.8707 26.2987C12.2358 26.2143 12.5698 26.0291 12.8347 25.764L24.956 13.6427Z" fill="#A4A4A5" fill-opacity="0.5"/>
</svg>
