<svg width="18" height="18" viewBox="0 0 18 18" fill="none" xmlns="http://www.w3.org/2000/svg">
<g clip-path="url(#clip0_27_215)">
<path d="M7.875 3.90615e-05C3.5325 3.90615e-05 0 3.53254 0 7.87504C0 12.2175 3.5325 15.75 7.875 15.75C9.2025 15.75 10.5075 15.435 11.61 14.8275C11.6983 14.9338 11.7962 15.0317 11.9025 15.12L14.1525 17.37C14.3603 17.6038 14.6136 17.7927 14.897 17.925C15.1804 18.0573 15.4878 18.1303 15.8004 18.1395C16.113 18.1487 16.4242 18.0939 16.7149 17.9785C17.0056 17.8631 17.2696 17.6895 17.4908 17.4683C17.7119 17.2472 17.8855 16.9831 18.001 16.6925C18.1164 16.4018 18.1712 16.0906 18.162 15.778C18.1528 15.4654 18.0798 15.1579 17.9474 14.8745C17.8151 14.5911 17.6263 14.3378 17.3925 14.13L15.1425 11.88C15.0329 11.7704 14.9123 11.6724 14.7825 11.5875C15.39 10.485 15.7725 9.20254 15.7725 7.85254C15.7725 3.51004 12.24 -0.0224609 7.8975 -0.0224609L7.875 3.90615e-05ZM7.875 2.25004C11.0025 2.25004 13.5 4.74754 13.5 7.87504C13.5 9.36004 12.96 10.7325 12.015 11.745L11.9475 11.8125C11.8412 11.9009 11.7433 11.9988 11.655 12.105C10.665 13.005 9.315 13.5225 7.8525 13.5225C4.725 13.5225 2.2275 11.025 2.2275 7.89754C2.2275 4.77004 4.725 2.27254 7.8525 2.27254L7.875 2.25004Z" fill="#7F1BAF"/>
</g>
<defs>
<clipPath id="clip0_27_215">
<rect width="18" height="18" fill="white"/>
</clipPath>
</defs>
</svg>
