<svg width="171" height="112" viewBox="0 0 171 112" fill="none" xmlns="http://www.w3.org/2000/svg">
<g clip-path="url(#clip0_37_623)">
<mask id="mask0_37_623" style="mask-type:luminance" maskUnits="userSpaceOnUse" x="60" y="0" width="111" height="112">
<path d="M60.6274 0H170.221V112H60.6274V0Z" fill="white"/>
</mask>
<g mask="url(#mask0_37_623)">
<path fill-rule="evenodd" clip-rule="evenodd" d="M106.705 0.817697C106.903 0.0624888 109.216 -1.04606e-05 111.883 0.68228C114.549 1.36978 116.549 2.53645 116.357 3.29686C116.164 4.05207 113.846 4.11457 111.179 3.42707C108.513 2.74478 106.513 1.5729 106.705 0.817697ZM84.9347 4.41145C84.794 3.77082 86.6638 2.83332 89.1065 2.3177C91.544 1.80207 93.6326 1.90624 93.768 2.54686C93.9034 3.1927 92.0336 4.1302 89.5961 4.64061C87.1534 5.15624 85.0701 5.05728 84.9347 4.41145ZM152.669 30.2969C146.247 28.7917 139.94 24.1719 138.455 17.3854C138.179 16.1354 138.393 13.8489 137.758 12.6042C136.487 10.1094 134.513 8.4427 131.836 7.60936C129.179 6.78124 125.351 7.22395 124.008 9.97916C122.185 13.7396 125.508 17.526 128.659 19.0104C129.164 19.2552 130.179 19.5417 131.69 19.875C138.065 21.2708 144.966 26.4844 145.711 33.4114C145.893 35.0729 145.982 35.9062 145.982 35.9114C146.997 40.7031 152.304 43.8646 157.028 42.5833C160.862 41.5469 161.502 37.2969 159.424 34.3594C158.476 33.0156 157.289 31.9792 155.872 31.2656C155.341 31 154.273 30.6771 152.669 30.2969ZM137.919 10.6614C138.367 9.98957 140.534 10.651 142.768 12.1302C144.997 13.6094 146.445 15.3594 146.002 16.026C145.554 16.6979 143.388 16.0417 141.153 14.5573C138.924 13.0781 137.476 11.3281 137.919 10.6614ZM125.388 28.2031C120.508 27.6094 114.82 23.2187 117.955 17.6823C118.346 16.9896 118.57 16.4531 118.622 16.0677C118.841 14.4948 118.2 13.3646 116.705 12.6823C114.695 11.7656 112.461 11.5469 109.992 12.026C107.424 12.5208 104.237 13.9062 103.388 16.4687C102.45 19.2969 105.544 20.8802 108.039 21.1562C113.784 21.7864 120.935 24.7812 117.523 32.0104C117.112 32.8854 116.898 33.5677 116.888 34.0521C116.867 35.2292 117.403 36.1406 118.492 36.7864C122.179 38.9479 128.013 37.9271 131.039 35.0052C133.211 32.9062 132.508 30.1198 129.679 29.0312C128.357 28.5312 126.789 28.3698 125.388 28.2031ZM87.0388 19.6667C87.7576 17.7812 90.393 17.0417 92.9242 18.0052C95.4555 18.9739 96.9242 21.2864 96.2055 23.1719C95.4867 25.0521 92.8513 25.7969 90.3201 24.8333C87.7888 23.8646 86.3149 21.5521 87.0388 19.6667ZM164.221 37.5989C163.497 37.9687 161.924 36.3646 160.705 34.0156C159.487 31.6614 159.08 29.4531 159.799 29.0781C160.523 28.7031 162.096 30.3073 163.315 32.6614C164.539 35.0156 164.94 37.2239 164.221 37.5989ZM139.466 49.9531C136.83 50.8177 133.94 49.2292 133.013 46.401C132.086 43.5729 133.466 40.5781 136.101 39.7135C138.732 38.8489 141.622 40.4375 142.549 43.2656C143.482 46.0937 142.096 49.0885 139.466 49.9531ZM77.1013 71.1302C75.893 76.5573 80.5909 80.6667 85.9138 79.7292C89.2888 79.1354 91.4972 76.8594 92.9294 73.7708C96.2211 66.6615 104.393 62.0104 112.159 63.7969C116.112 64.7083 119.31 65.9583 121.758 69.0937C124.622 72.7708 125.45 77.0052 124.242 81.8125C123.919 83.099 123.013 84.9323 122.742 86.3698C121.982 90.4323 124.242 94.0417 128.242 94.8958C131.778 95.651 135.393 94.0312 137.409 91.0729C139.81 87.5573 139.304 82.8802 135.617 80.4687C134.544 79.776 132.497 79.25 131.284 78.6042C124.752 75.1146 122.45 67.2552 125.08 60.5469C125.633 59.1458 125.95 58.1875 126.039 57.6771C126.81 53.2083 124.044 49.5989 119.638 49.0833C115.242 48.5729 111.872 50.8698 110.002 54.9114C106.622 62.1719 98.9815 66.4167 91.0388 65.2396C89.4659 65.0052 87.5701 64.1198 85.8461 64.1406C81.7055 64.1875 78.0128 67.0365 77.1013 71.1302ZM152.211 56.651C150.95 56.0677 149.903 55.2239 149.065 54.1094C148.07 52.7917 147.107 51.1875 145.82 50.5417C143.419 49.3489 141.409 51.4167 140.721 53.75C139.914 56.4739 139.992 59.1354 140.95 61.7292C141.112 62.1719 141.664 63.2187 142.607 64.8698C146.169 71.1042 147.018 79.4115 144.096 86.125C143.549 87.3854 143.216 88.2865 143.107 88.8229C142.549 91.5 142.841 94.1146 143.976 96.6823C144.794 98.5417 146.955 100.865 149.117 100.036C152.836 98.6198 152.523 91.9844 151.539 89.099C151.362 88.5781 150.81 87.5 149.877 85.8698C145.804 78.7344 145.247 69.8073 149.455 62.4062C151.601 58.6354 155.898 57.4687 159.315 60.5C160.455 61.5104 161.45 62.651 162.304 63.9219C164.247 66.8021 167.643 66.4687 168.893 63.2083C170.221 59.7448 169.82 55.2187 167.633 52.1875C166.362 50.4323 164.247 49.2552 162.383 50.9219C162.096 51.1771 161.627 51.8698 160.976 52.9896C159.034 56.3437 156.174 58.4635 152.211 56.651ZM66.518 85.9323C63.5076 86.0729 60.9399 83.4219 60.7836 80.0208C60.6326 76.6146 62.9451 73.7448 65.9607 73.6094C68.9711 73.474 71.5388 76.1198 71.6899 79.5208C71.8461 82.9271 69.5284 85.7969 66.518 85.9323ZM160.148 83.9792C159.445 83.6823 159.763 81.3281 160.862 78.7187C161.966 76.1146 163.429 74.2396 164.133 74.5417C164.836 74.8385 164.518 77.1927 163.414 79.7969C162.315 82.4062 160.851 84.276 160.148 83.9792ZM99.5961 87.9792C100.169 85.2031 103.226 83.4948 106.419 84.1562C109.612 84.8177 111.732 87.599 111.159 90.375C110.586 93.1406 107.534 94.8542 104.336 94.1927C101.148 93.5312 99.0232 90.75 99.5961 87.9792ZM131.534 105.891C130.06 104.802 130.08 102.266 131.586 100.234C133.091 98.2031 135.508 97.4375 136.982 98.5312C138.455 99.6198 138.435 102.156 136.929 104.187C135.429 106.224 133.008 106.984 131.534 105.891ZM140.679 111.016C140.164 110.453 141.325 108.568 143.268 106.807C145.205 105.052 147.195 104.078 147.705 104.641C148.216 105.203 147.06 107.089 145.117 108.849C143.174 110.609 141.19 111.578 140.679 111.016Z" fill="white"/>
</g>
<path d="M89.6704 55.0603H77.6079V39.8312H89.6704V42.8728H81.5246V45.8103H87.9412V48.852H81.5246V52.0187H89.6704V55.0603Z" fill="#F5F5F5"/>
<path d="M61.6328 39.8312H70.7578C72.2839 39.8312 73.388 40.1801 74.0703 40.8728C74.763 41.5551 75.112 42.6593 75.112 44.1853V46.1437C75.112 47.352 74.9089 48.2895 74.5078 48.9562C74.1172 49.6228 73.487 50.0603 72.612 50.2687L75.3203 55.0603H71.0911L68.5911 50.4978H65.5495V55.0603H61.6328V39.8312ZM71.1953 44.1853C71.1953 43.3103 70.7578 42.8728 69.8828 42.8728H65.5495V47.4562H69.8828C70.7578 47.4562 71.1953 47.0187 71.1953 46.1437V44.1853Z" fill="#F5F5F5"/>
<path d="M59.5676 55.0603H47.5051V39.8312H59.5676V42.8728H51.4218V45.8103H57.8385V48.852H51.4218V52.0187H59.5676V55.0603Z" fill="#F5F5F5"/>
<path d="M44.5627 55.0603H40.6669V48.852H35.2294V55.0603H31.3127V39.8312H35.2294V45.8103H40.6669V39.8312H44.5627V55.0603Z" fill="#F5F5F5"/>
<path d="M0.208333 27.9145C4.17708 28.1228 6.86458 28.227 8.27083 28.227C8.60417 28.227 8.86458 28.1333 9.0625 27.9353C9.25521 27.7426 9.35417 27.477 9.35417 27.1437V25.1853H4.35417C2.83854 25.1853 1.73437 24.8468 1.04167 24.1645C0.343751 23.4718 0 22.3624 0 20.8312V20.1853C0 18.6593 0.343751 17.5551 1.04167 16.8728C1.73437 16.1801 2.83854 15.8312 4.35417 15.8312H12V18.8728H5.22917C4.35417 18.8728 3.91667 19.3103 3.91667 20.1853V20.6228C3.91667 21.4978 4.35417 21.9353 5.22917 21.9353H9.14583C10.5625 21.9353 11.6042 22.2687 12.2708 22.9353C12.9375 23.602 13.2708 24.6437 13.2708 26.0603V27.1437C13.2708 28.5603 12.9375 29.602 12.2708 30.2687C11.6042 30.9353 10.5625 31.2687 9.14583 31.2687C8.40625 31.2687 7.625 31.2531 6.79167 31.227L4.79167 31.1437C3.31771 31.0708 1.79167 30.977 0.208333 30.852V27.9145Z" fill="#F5F5F5"/>
<path d="M19.4716 31.0603H15.5549V15.8312H19.4716V21.8103H21.4299L24.8049 15.8312H28.9508L24.6799 23.3312L28.9299 31.0603H24.7841L21.4299 24.852H19.4716V31.0603Z" fill="#F5F5F5"/>
<path d="M0.208333 51.9145C4.17708 52.1228 6.86458 52.227 8.27083 52.227C8.60417 52.227 8.86458 52.1333 9.0625 51.9353C9.25521 51.7426 9.35417 51.477 9.35417 51.1437V49.1853H4.35417C2.83854 49.1853 1.73437 48.8468 1.04167 48.1645C0.343751 47.4718 0 46.3624 0 44.8312V44.1853C0 42.6593 0.343751 41.5551 1.04167 40.8728C1.73437 40.1801 2.83854 39.8312 4.35417 39.8312H12V42.8728H5.22917C4.35417 42.8728 3.91667 43.3103 3.91667 44.1853V44.6228C3.91667 45.4978 4.35417 45.9353 5.22917 45.9353H9.14583C10.5625 45.9353 11.6042 46.2687 12.2708 46.9353C12.9375 47.602 13.2708 48.6437 13.2708 50.0603V51.1437C13.2708 52.5603 12.9375 53.602 12.2708 54.2687C11.6042 54.9353 10.5625 55.2687 9.14583 55.2687C8.40625 55.2687 7.625 55.2531 6.79167 55.227L4.79167 55.1437C3.31771 55.0708 1.79167 54.977 0.208333 54.852V51.9145Z" fill="#F5F5F5"/>
<path d="M15.5549 39.8312H24.6799C26.206 39.8312 27.3101 40.1801 27.9924 40.8728C28.6851 41.5551 29.0341 42.6593 29.0341 44.1853V46.352C29.0341 47.8833 28.6851 48.9926 27.9924 49.6853C27.3101 50.3676 26.206 50.7062 24.6799 50.7062H19.4716V55.0603H15.5549V39.8312ZM25.1174 44.1853C25.1174 43.3103 24.6799 42.8728 23.8049 42.8728H19.4716V47.6645H23.8049C24.6799 47.6645 25.1174 47.227 25.1174 46.352V44.1853Z" fill="#F5F5F5"/>
<path d="M57.6381 28.0187H65.5756V31.0603H53.7214V15.8312H57.6381V28.0187Z" fill="#F5F5F5"/>
<path d="M43.945 28.0187H51.8825V31.0603H40.0283V15.8312H43.945V28.0187Z" fill="#F5F5F5"/>
<path d="M37.7406 31.0603H29.9072V28.0187H31.8656V18.8728H29.9072V15.8312H37.7406V18.8728H35.7822V28.0187H37.7406V31.0603Z" fill="#F5F5F5"/>
</g>
<defs>
<clipPath id="clip0_37_623">
<rect width="170.221" height="112" fill="white"/>
</clipPath>
</defs>
</svg>
