<svg width="35" height="35" viewBox="0 0 35 35" fill="none" xmlns="http://www.w3.org/2000/svg">
<path d="M28.4375 9.84375H6.5625C4.75032 9.84375 3.28125 11.3128 3.28125 13.125V26.25C3.28125 28.0622 4.75032 29.5312 6.5625 29.5312H28.4375C30.2497 29.5312 31.7188 28.0622 31.7188 26.25V13.125C31.7188 11.3128 30.2497 9.84375 28.4375 9.84375Z" stroke="white" stroke-width="3" stroke-linejoin="round"/>
<path d="M28.1203 9.84375V7.79297C28.1201 7.28998 28.009 6.79323 27.7947 6.33816C27.5805 5.88309 27.2684 5.48092 26.8809 5.16033C26.4933 4.83974 26.0397 4.60864 25.5525 4.48353C25.0654 4.35841 24.5566 4.34236 24.0625 4.43652L6.05938 7.50928C5.27756 7.65826 4.57225 8.07541 4.06509 8.68878C3.55793 9.30214 3.28071 10.0733 3.28125 10.8691V14.2187" stroke="white" stroke-width="3" stroke-linejoin="round"/>
<path d="M25.1563 21.875C24.7236 21.875 24.3007 21.7467 23.9409 21.5063C23.5812 21.266 23.3008 20.9243 23.1353 20.5246C22.9697 20.1249 22.9264 19.6851 23.0108 19.2607C23.0952 18.8364 23.3035 18.4466 23.6095 18.1407C23.9154 17.8348 24.3052 17.6264 24.7295 17.542C25.1538 17.4576 25.5937 17.5009 25.9934 17.6665C26.3931 17.8321 26.7347 18.1125 26.9751 18.4722C27.2155 18.8319 27.3438 19.2549 27.3438 19.6875C27.3438 20.2677 27.1133 20.8241 26.703 21.2343C26.2928 21.6445 25.7364 21.875 25.1563 21.875Z" fill="white"/>
</svg>
